<svg width="60" height="60" viewBox="0 0 60 60" fill="none" xmlns="http://www.w3.org/2000/svg">
<g clip-path="url(#clip0_232_228)">
<path d="M29.8788 14.1552C25.1784 14.1558 20.5212 16.176 21.0108 20.2128L22.2108 28.9872C22.4214 30.531 23.4648 33 25.023 33H25.134L26.4102 47.7186C26.4654 48.381 26.9454 48.9186 27.6102 48.9186H32.4102C33.075 48.9186 33.555 48.381 33.6102 47.7186L34.8864 33H34.998C36.5562 33 37.599 30.531 37.8102 28.9872L39.0102 20.2128C39.3246 16.1724 34.5798 14.154 29.8788 14.1552Z" fill="#003F66"/>
<path d="M30.0144 30.5448L29.9856 30.6204C29.9952 30.5976 30.0018 30.5742 30.0114 30.5514L30.0144 30.5448Z" fill="#003F66"/>
<path d="M30 12.6C33.4794 12.6 36.3 9.77939 36.3 6.3C36.3 2.82061 33.4794 0 30 0C26.5206 0 23.7 2.82061 23.7 6.3C23.7 9.77939 26.5206 12.6 30 12.6Z" fill="#003F66"/>
<path d="M36.5532 41.4552C36.5022 42.0384 36.4482 42.6204 36.3972 43.2036C41.7684 43.962 45.75 45.6828 46.2 47.8116C46.8702 50.9772 36.5148 52.4016 29.844 52.335C23.1732 52.2678 13.0086 50.9772 13.8972 47.811C14.4804 45.7332 18.4044 44.0466 23.6352 43.2612C23.583 42.6762 23.5236 42.0912 23.4732 41.5068C16.7496 42.2484 11.148 44.0742 8.91 46.4544H1.3374L0 49.2282H7.8996C8.5134 52.4922 15.3558 55.3098 25.14 56.0214L24.8052 60H34.4892L34.392 56.022C44.226 55.3098 51.2622 52.4922 52.1004 49.2282H60L58.854 46.4544H51.2814C49.1556 44.0142 43.4526 42.1584 36.5532 41.4552Z" fill="#003F66"/>
</g>
<defs>
<clipPath id="clip0_232_228">
<rect width="60" height="60" fill="white"/>
</clipPath>
</defs>
</svg>
