<svg width="60" height="60" viewBox="0 0 60 60" fill="none" xmlns="http://www.w3.org/2000/svg">
<path d="M50 55.225L56.125 58.95L54.5 51.925L60 47.225L52.775 46.6L50 40L47.175 46.6L40 47.225L45.45 51.925L43.75 58.95L50 55.225ZM35.2 52.5H5C2.375 52.5 0 50.125 0 47.5V12.5C0 9.875 2.375 7.5 5 7.5H55C57.625 7.5 60 9.875 60 12.5V38.825C57.2544 36.3571 53.6917 34.9944 50 35C41.725 35 35 41.725 35 50C35 50.85 35.075 51.7 35.2 52.5ZM20 34.775C15 34.775 5 37.5 5 42.5V45H35V42.5C35 37.5 25 34.775 20 34.775ZM20 15C15.875 15 12.5 18.375 12.5 22.5C12.5 26.625 15.875 30 20 30C24.125 30 27.5 26.625 27.5 22.5C27.5 18.375 24.125 15 20 15ZM52.5 25H35V27.5H52.5V25ZM55 20H35V22.5H55V20ZM55 15H35V17.5H55V15Z" fill="#003F66"/>
</svg>
