<svg width="60" height="60" viewBox="0 0 60 60" fill="none" xmlns="http://www.w3.org/2000/svg">
<path d="M59.1797 32.9297L54.4922 37.6172C53.9614 38.141 53.2457 38.4348 52.5 38.4348C51.7543 38.4348 51.0385 38.141 50.5078 37.6172L45.8203 32.9297C45.2997 32.4167 44.9992 31.7213 44.9825 30.9906C44.9657 30.2599 45.2341 29.5514 45.7307 29.0152C46.2274 28.4789 46.9132 28.1571 47.643 28.1178C48.3728 28.0785 49.0893 28.3249 49.6406 28.8047C49.3941 24.8082 47.9347 20.9819 45.4574 17.8362C42.98 14.6905 39.6024 12.375 35.775 11.1985C31.9477 10.022 27.8526 10.0405 24.036 11.2516C20.2194 12.4626 16.8629 14.8086 14.4141 17.9766C13.9572 18.5671 13.2844 18.9519 12.5438 19.0464C11.8032 19.1409 11.0554 18.9373 10.4648 18.4805C9.87431 18.0236 9.48947 17.3508 9.39497 16.6102C9.30047 15.8696 9.50405 15.1218 9.96093 14.5313C13.1299 10.4242 17.4843 7.38993 22.4346 5.83922C27.385 4.2885 32.6922 4.29619 37.638 5.86126C42.5839 7.42633 46.9294 10.4732 50.0865 14.5894C53.2435 18.7057 55.0597 23.6925 55.2891 28.875C55.8335 28.3975 56.5411 28.1483 57.2646 28.1795C57.9881 28.2106 58.6717 28.5196 59.1731 29.0421C59.6744 29.5646 59.955 30.2604 59.9562 30.9846C59.9574 31.7087 59.6793 32.4055 59.1797 32.9297ZM50.0391 45.4688C46.8701 49.5758 42.5157 52.6101 37.5654 54.1608C32.615 55.7115 27.3078 55.7038 22.3619 54.1387C17.4161 52.5737 13.0706 49.5268 9.91352 45.4106C6.75646 41.2943 4.94032 36.3075 4.71093 31.125C4.16652 31.6025 3.4589 31.8517 2.73541 31.8205C2.01191 31.7894 1.3283 31.4804 0.826922 30.9579C0.325541 30.4354 0.0450298 29.7396 0.0437968 29.0154C0.0425638 28.2913 0.320704 27.5945 0.820303 27.0703L5.5078 22.3828C5.76909 22.1206 6.07957 21.9126 6.42144 21.7706C6.7633 21.6287 7.12983 21.5556 7.49999 21.5556C7.87015 21.5556 8.23668 21.6287 8.57854 21.7706C8.92041 21.9126 9.23089 22.1206 9.49218 22.3828L14.1797 27.0703C14.4419 27.3316 14.6499 27.6421 14.7919 27.9839C14.9338 28.3258 15.0069 28.6923 15.0069 29.0625C15.0069 29.4327 14.9338 29.7992 14.7919 30.1411C14.6499 30.4829 14.4419 30.7934 14.1797 31.0547C13.648 31.5774 12.9331 31.8718 12.1875 31.875C11.5166 31.8737 10.8682 31.6327 10.3594 31.1953C10.5822 35.1991 12.0488 39.0335 14.5547 42.1641C16.3744 39.8529 18.6889 37.9788 21.3281 36.6797C19.639 34.9692 18.4935 32.7974 18.0356 30.4374C17.5777 28.0775 17.828 25.6349 18.7549 23.4168C19.6818 21.1988 21.244 19.3044 23.2449 17.972C25.2458 16.6396 27.5961 15.9287 30 15.9287C32.4039 15.9287 34.7542 16.6396 36.7551 17.972C38.756 19.3044 40.3181 21.1988 41.2451 23.4168C42.172 25.6349 42.4222 28.0775 41.9644 30.4374C41.5065 32.7974 40.361 34.9692 38.6719 36.6797C41.3202 37.9853 43.6426 39.8673 45.4687 42.1875L45.5859 42.0234C46.0428 41.4329 46.7156 41.0481 47.4562 40.9536C48.1968 40.8591 48.9446 41.0627 49.5351 41.5195C50.1257 41.9764 50.5105 42.6492 50.605 43.3898C50.6995 44.1304 50.4959 44.8782 50.0391 45.4688ZM30 34.6875C31.2979 34.6875 32.5667 34.3026 33.6459 33.5815C34.7251 32.8604 35.5662 31.8355 36.063 30.6364C36.5597 29.4372 36.6896 28.1177 36.4364 26.8447C36.1832 25.5717 35.5582 24.4024 34.6404 23.4846C33.7226 22.5668 32.5533 21.9418 31.2803 21.6886C30.0073 21.4354 28.6878 21.5653 27.4886 22.062C26.2895 22.5587 25.2646 23.3999 24.5435 24.4791C23.8224 25.5583 23.4375 26.8271 23.4375 28.125C23.4437 29.8636 24.1371 31.5292 25.3664 32.7586C26.5958 33.9879 28.2614 34.6813 30 34.6875ZM30 49.6875C34.0735 49.7042 38.0495 48.4417 41.3672 46.0781C40.0617 44.2911 38.353 42.8373 36.3798 41.8351C34.4066 40.833 32.2248 40.3106 30.0117 40.3106C27.7986 40.3106 25.6168 40.833 23.6436 41.8351C21.6704 42.8373 19.9617 44.2911 18.6562 46.0781C21.971 48.43 25.9357 49.6915 30 49.6875Z" fill="#003F66"/>
</svg>
