<svg width="60" height="60" viewBox="0 0 60 60" fill="none" xmlns="http://www.w3.org/2000/svg">
<path d="M38.4375 13.125C38.4375 12.3791 38.7338 11.6637 39.2612 11.1363C39.7887 10.6088 40.5041 10.3125 41.25 10.3125H44.0625V7.5C44.0625 6.75408 44.3588 6.03871 44.8862 5.51126C45.4137 4.98382 46.1291 4.6875 46.875 4.6875C47.6209 4.6875 48.3363 4.98382 48.8637 5.51126C49.3912 6.03871 49.6875 6.75408 49.6875 7.5V10.3125H52.5C53.2459 10.3125 53.9613 10.6088 54.4887 11.1363C55.0162 11.6637 55.3125 12.3791 55.3125 13.125C55.3125 13.8709 55.0162 14.5863 54.4887 15.1137C53.9613 15.6412 53.2459 15.9375 52.5 15.9375H49.6875V18.75C49.6875 19.4959 49.3912 20.2113 48.8637 20.7387C48.3363 21.2662 47.6209 21.5625 46.875 21.5625C46.1291 21.5625 45.4137 21.2662 44.8862 20.7387C44.3588 20.2113 44.0625 19.4959 44.0625 18.75V15.9375H41.25C40.5041 15.9375 39.7887 15.6412 39.2612 15.1137C38.7338 14.5863 38.4375 13.8709 38.4375 13.125ZM55.0078 26.0156C55.6528 30.1444 55.2695 34.3685 53.8918 38.3136C52.514 42.2588 50.1844 45.8032 47.1094 48.6328C46.996 48.7618 46.8704 48.8795 46.7344 48.9844C42.1137 53.0625 36.1629 55.313 30 55.313C23.8371 55.313 17.8862 53.0625 13.2656 48.9844C13.1296 48.8795 13.004 48.7618 12.8906 48.6328C8.90299 44.9473 6.20489 40.0782 5.19403 34.7432C4.18317 29.4082 4.91304 23.8896 7.27604 19.0008C9.63904 14.1121 13.5101 10.1118 18.3188 7.58963C23.1274 5.06748 28.6191 4.15693 33.9844 4.99219C34.7227 5.11315 35.3833 5.52095 35.8223 6.12676C36.2612 6.73257 36.4431 7.4873 36.3281 8.22656C36.2712 8.59045 36.1427 8.93946 35.9501 9.25343C35.7576 9.5674 35.5047 9.84012 35.2062 10.0558C34.9076 10.2716 34.5693 10.426 34.2108 10.5103C33.8522 10.5946 33.4806 10.607 33.1172 10.5469C32.0858 10.3873 31.0436 10.309 30 10.3125C26.3053 10.31 22.6846 11.3484 19.5528 13.3088C16.4211 15.2692 13.905 18.0722 12.2929 21.3967C10.6808 24.7212 10.038 28.4326 10.438 32.1056C10.838 35.7786 12.2647 39.2646 14.5547 42.1641C16.3744 39.8529 18.6889 37.9788 21.3281 36.6797C19.639 34.9692 18.4935 32.7974 18.0356 30.4374C17.5777 28.0775 17.828 25.6349 18.7549 23.4168C19.6818 21.1988 21.244 19.3044 23.2449 17.972C25.2458 16.6396 27.5961 15.9287 30 15.9287C32.4039 15.9287 34.7542 16.6396 36.7551 17.972C38.756 19.3044 40.3181 21.1988 41.2451 23.4168C42.172 25.6349 42.4222 28.0775 41.9644 30.4374C41.5065 32.7974 40.361 34.9692 38.6719 36.6797C41.311 37.9788 43.6256 39.8529 45.4453 42.1641C48.1933 38.7052 49.6886 34.4176 49.6875 30C49.691 28.9564 49.6127 27.9141 49.4531 26.8828C49.393 26.5194 49.4054 26.1477 49.4897 25.7892C49.574 25.4307 49.7284 25.0923 49.9441 24.7938C50.1599 24.4953 50.4326 24.2424 50.7466 24.0499C51.0605 23.8573 51.4095 23.7288 51.7734 23.6719C52.5127 23.5569 53.2674 23.7387 53.8732 24.1777C54.479 24.6167 54.8868 25.2773 55.0078 26.0156ZM30 34.6875C31.2979 34.6875 32.5667 34.3026 33.6459 33.5815C34.7251 32.8604 35.5662 31.8355 36.0629 30.6364C36.5596 29.4372 36.6896 28.1177 36.4364 26.8447C36.1832 25.5717 35.5582 24.4024 34.6404 23.4846C33.7226 22.5668 32.5533 21.9418 31.2803 21.6886C30.0073 21.4354 28.6878 21.5653 27.4886 22.062C26.2895 22.5587 25.2646 23.3999 24.5435 24.4791C23.8224 25.5583 23.4375 26.8271 23.4375 28.125C23.4437 29.8636 24.1371 31.5292 25.3664 32.7586C26.5958 33.9879 28.2614 34.6813 30 34.6875ZM30 49.6875C34.0643 49.6915 38.029 48.43 41.3437 46.0781C40.0408 44.2912 38.3342 42.8374 36.3629 41.8351C34.3916 40.8328 32.2115 40.3104 30 40.3104C27.7885 40.3104 25.6083 40.8328 23.6371 41.8351C21.6658 42.8374 19.9592 44.2912 18.6562 46.0781C21.971 48.43 25.9357 49.6915 30 49.6875Z" fill="#003F66"/>
</svg>
