<svg width="20" height="20" viewBox="0 0 20 20" fill="none" xmlns="http://www.w3.org/2000/svg">
<path d="M6.67251 1.9875C5.48199 2.3156 4.29957 2.67237 3.12626 3.0575C3.01912 3.09221 2.92388 3.1563 2.85139 3.24249C2.77891 3.32868 2.73208 3.4335 2.71626 3.545C2.02376 8.74125 3.62376 12.5325 5.53251 15.03C6.34065 16.098 7.30427 17.0389 8.39126 17.8213C8.82376 18.1262 9.20626 18.3463 9.50751 18.4875C9.65751 18.5588 9.78001 18.6063 9.87376 18.635C9.91476 18.6494 9.95703 18.6598 10 18.6663C10.0425 18.6593 10.0843 18.6489 10.125 18.635C10.22 18.6063 10.3425 18.5588 10.4925 18.4875C10.7925 18.3463 11.1763 18.125 11.6088 17.8213C12.6957 17.0388 13.6593 16.098 14.4675 15.03C16.3763 12.5338 17.9763 8.74125 17.2838 3.545C17.2681 3.43345 17.2213 3.32856 17.1488 3.24235C17.0763 3.15614 16.981 3.09208 16.8738 3.0575C16.06 2.79125 14.6863 2.3575 13.3275 1.98875C11.94 1.6125 10.6638 1.33375 10 1.33375C9.33751 1.33375 8.06001 1.6125 6.67251 1.98875V1.9875ZM6.34001 0.7C7.69626 0.33125 9.13751 0 10 0C10.8625 0 12.3038 0.33125 13.66 0.7C15.0475 1.075 16.4463 1.51875 17.2688 1.7875C17.6126 1.90106 17.9175 2.10933 18.1484 2.38838C18.3792 2.66742 18.5266 3.00592 18.5738 3.365C19.3188 8.96125 17.59 13.1088 15.4925 15.8525C14.6031 17.0262 13.5425 18.0598 12.3463 18.9188C11.9326 19.216 11.4944 19.4773 11.0363 19.7C10.6863 19.865 10.31 20 10 20C9.69001 20 9.31501 19.865 8.96376 19.7C8.50565 19.4773 8.06739 19.216 7.65376 18.9188C6.45754 18.0598 5.39698 17.0262 4.50751 15.8525C2.41001 13.1088 0.681257 8.96125 1.42626 3.365C1.47337 3.00592 1.62081 2.66742 1.85165 2.38838C2.0825 2.10933 2.38737 1.90106 2.73126 1.7875C3.92525 1.39601 5.12851 1.03341 6.34001 0.7Z" fill="#535353"/>
<path d="M13.5676 6.43166C13.6258 6.48972 13.6719 6.55869 13.7034 6.63462C13.735 6.71055 13.7512 6.79195 13.7512 6.87416C13.7512 6.95637 13.735 7.03777 13.7034 7.11371C13.6719 7.18964 13.6258 7.25861 13.5676 7.31666L9.81756 11.0667C9.7595 11.1249 9.69053 11.171 9.6146 11.2026C9.53867 11.2341 9.45727 11.2503 9.37506 11.2503C9.29285 11.2503 9.21145 11.2341 9.13552 11.2026C9.05958 11.171 8.99061 11.1249 8.93256 11.0667L7.05756 9.19166C6.99945 9.13355 6.95335 9.06457 6.9219 8.98864C6.89045 8.91272 6.87427 8.83134 6.87427 8.74916C6.87427 8.66698 6.89045 8.58561 6.9219 8.50968C6.95335 8.43376 6.99945 8.36477 7.05756 8.30666C7.11567 8.24855 7.18465 8.20246 7.26058 8.17101C7.3365 8.13956 7.41788 8.12337 7.50006 8.12337C7.58224 8.12337 7.66361 8.13956 7.73954 8.17101C7.81546 8.20246 7.88445 8.24855 7.94256 8.30666L9.37506 9.74041L12.6826 6.43166C12.7406 6.37346 12.8096 6.32728 12.8855 6.29577C12.9614 6.26426 13.0428 6.24805 13.1251 6.24805C13.2073 6.24805 13.2887 6.26426 13.3646 6.29577C13.4405 6.32728 13.5095 6.37346 13.5676 6.43166Z" fill="#535353"/>
</svg>
