<svg width="25" height="25" viewBox="0 0 25 25" fill="none" xmlns="http://www.w3.org/2000/svg">
<g clip-path="url(#clip0_57_19605)">
<path d="M14.8541 12.0176C15.1161 11.9904 15.3773 11.9559 15.6373 11.9141V10.0777C15.2373 10.2687 14.8201 10.3867 14.4053 10.4781C13.3533 10.698 12.2834 10.7238 11.2232 10.6129C10.6889 10.5453 10.1744 10.457 9.6416 10.2676C9.53613 10.2277 9.43145 10.1832 9.32715 10.1332V11.784C11.1561 12.0836 13.0158 12.2105 14.8541 12.0176Z" fill="white"/>
<path d="M21.9918 16.4012V9.70352C21.9918 8.92695 21.4582 8.20391 20.5453 7.59141V4.6582C20.5453 4.37109 20.3176 4.13359 20.0211 4.08867C20.2387 3.99648 20.3926 3.80625 20.3926 3.57734C20.3926 3.25977 19.7473 2.23477 19.7473 2.23477C19.7473 2.23477 19.1012 3.25938 19.1012 3.57734C19.1012 3.80312 19.2516 3.9918 19.4648 4.08555C19.1516 4.1168 18.9059 4.36016 18.9059 4.6582V6.76172C18.3339 6.54353 17.7479 6.36383 17.152 6.22383C17.1827 6.15001 17.199 6.07098 17.2 5.99102C17.2 5.60703 16.4188 4.36836 16.4188 4.36836C16.4188 4.36836 15.7039 5.50273 15.6438 5.93633C14.8785 5.82344 14.0641 5.75781 13.2238 5.73125V2.9168C13.2238 2.65859 13.0238 2.44297 12.7598 2.3957C12.9398 2.31172 13.0656 2.14922 13.0656 1.95586C13.0652 1.67773 12.5 0.78125 12.5 0.78125C12.5 0.78125 11.9348 1.67773 11.9348 1.95586C11.9348 2.14688 12.0574 2.30781 12.234 2.39258C11.9555 2.42852 11.7395 2.64844 11.7395 2.9168V5.73164C10.918 5.75898 10.1215 5.82383 9.37227 5.93398C9.29883 5.49062 8.59844 4.37969 8.59844 4.37969C8.59844 4.37969 7.81719 5.61797 7.81719 6.00234C7.81719 6.0793 7.83477 6.15195 7.86055 6.22109C7.24499 6.36466 6.64026 6.55119 6.05078 6.7793V4.66406C6.05078 4.37734 5.82266 4.13984 5.52578 4.09492C5.74336 4.00273 5.89805 3.81211 5.89805 3.5832C5.89805 3.26563 5.25195 2.24063 5.25195 2.24063C5.25195 2.24063 4.60586 3.26523 4.60586 3.5832C4.60586 3.80898 4.75664 3.99766 4.96992 4.09141C4.65625 4.12305 4.41055 4.36641 4.41055 4.66406V7.62266C3.525 8.22891 3.00742 8.94062 3.00742 9.70391V16.4023C1.6082 17.2133 0.78125 18.2109 0.78125 19.2902C0.78125 22.0125 6.02812 24.2188 12.5 24.2188C18.9719 24.2188 24.2188 22.0125 24.2188 19.2902C24.2188 18.2105 23.3914 17.2129 21.9918 16.4012ZM19.4238 3.88398C19.4238 3.725 19.7473 3.2125 19.7473 3.2125C19.7473 3.2125 20.0707 3.725 20.0707 3.88398C20.07 3.92238 20.0609 3.96017 20.0441 3.99471C20.0273 4.02924 20.0032 4.05971 19.9734 4.08398C19.9555 4.08242 19.9379 4.07891 19.9195 4.07891H19.532C19.527 4.07891 19.5227 4.08008 19.5176 4.08008C19.4888 4.05602 19.4656 4.02606 19.4494 3.99222C19.4332 3.95839 19.4245 3.92148 19.4238 3.88398ZM19.2961 4.6582C19.2961 4.55586 19.4039 4.46992 19.532 4.46992H19.9195C20.0469 4.46992 20.1547 4.55625 20.1547 4.6582V8.87578C20.154 8.91714 20.1379 8.95673 20.1094 8.98672L19.9656 9.06016C19.9505 9.06285 19.9352 9.06429 19.9199 9.06445H19.5324C19.4047 9.06445 19.2965 8.97773 19.2965 8.87578V4.6582H19.2961ZM16.4184 5.55039C16.4184 5.55039 16.8098 6.16953 16.8098 6.36172C16.8098 6.55352 16.6344 6.70938 16.4184 6.70938C16.2023 6.70938 16.0277 6.55391 16.0277 6.36172C16.0277 6.16953 16.4184 5.55039 16.4184 5.55039ZM12.2176 2.22383C12.2176 2.08516 12.5 1.63711 12.5 1.63711C12.5 1.63711 12.7832 2.08477 12.7832 2.22383C12.7825 2.25542 12.7753 2.28653 12.7621 2.31522C12.7488 2.34392 12.7298 2.36958 12.7063 2.39062C12.6875 2.38867 12.6695 2.38516 12.6504 2.38516H12.3117C12.3047 2.38516 12.2984 2.38672 12.2914 2.38711C12.2687 2.3663 12.2504 2.3411 12.2378 2.31304C12.2251 2.28497 12.2182 2.25462 12.2176 2.22383ZM12.1301 2.9168C12.1301 2.84063 12.2133 2.77617 12.3117 2.77617H12.6504C12.7492 2.77617 12.8328 2.84063 12.8328 2.9168V6.60742C12.8324 6.6357 12.8215 6.66282 12.8023 6.68359L12.6832 6.74492C12.6723 6.74649 12.6614 6.74728 12.6504 6.74727H12.3117C12.2133 6.74727 12.1301 6.6832 12.1301 6.60742V2.9168ZM8.59844 5.56094C8.59844 5.56094 8.98906 6.18047 8.98906 6.37266C8.98906 6.56406 8.81445 6.72031 8.59844 6.72031C8.38242 6.72031 8.20781 6.56445 8.20781 6.37266C8.20781 6.18047 8.59844 5.56094 8.59844 5.56094ZM4.9293 3.88906C4.9293 3.73086 5.25195 3.21836 5.25195 3.21836C5.25195 3.21836 5.57539 3.73086 5.57539 3.88906C5.57474 3.92763 5.56566 3.96558 5.54879 4.00026C5.53192 4.03495 5.50767 4.06552 5.47773 4.08984C5.45977 4.08828 5.44258 4.08477 5.42422 4.08477H5.03672C5.03203 4.08477 5.02773 4.08594 5.02305 4.08594C4.99432 4.06167 4.9711 4.03156 4.95494 3.99761C4.93877 3.96366 4.93003 3.92666 4.9293 3.88906ZM4.80117 4.66328C4.80117 4.56133 4.90898 4.47539 5.03711 4.47539H5.42461C5.55234 4.47539 5.66055 4.56172 5.66055 4.66328V8.88125C5.65979 8.92243 5.64346 8.96179 5.61484 8.99141L5.47109 9.06524C5.45587 9.06793 5.44046 9.06937 5.425 9.06953H5.0375C4.90977 9.06953 4.80156 8.9832 4.80156 8.88125V4.66328H4.80117ZM4.36992 9.21133C4.38281 9.14492 4.40859 9.08437 4.43164 9.02266C4.45742 9.11719 4.5082 9.20195 4.57734 9.27188C4.54688 9.49492 4.60156 9.72109 4.7207 9.9168C4.97422 10.3242 5.4082 10.6094 5.85039 10.8359C6.46953 11.1441 7.13594 11.3406 7.81719 11.4953V7.51914C7.81719 7.41563 7.8668 7.325 7.93945 7.25039C7.82695 7.27227 7.71367 7.28867 7.60195 7.31367C7.07656 7.4332 6.54219 7.59141 6.05078 7.81992V7.61328C6.05664 7.61055 6.06211 7.60742 6.06797 7.60508C6.54766 7.39062 7.04805 7.2332 7.55547 7.11289C8.57225 6.87757 9.60933 6.74074 10.6523 6.7043C11.0176 6.69063 11.3836 6.69258 11.75 6.70156C11.7879 6.89375 11.9371 7.04766 12.1328 7.1082C11.6424 7.0576 11.15 7.02983 10.657 7.025C10.078 7.0222 9.49926 7.04932 8.92305 7.10625C9.15312 7.15078 9.32734 7.31406 9.32734 7.51914V8.23477L9.34805 8.22461C9.61602 8.1082 9.88125 8.04102 10.1492 7.99023C10.684 7.8918 11.2195 7.87031 11.7527 7.90078C12.2887 7.93789 12.8121 8.01211 13.3355 8.23516C13.4645 8.29375 13.593 8.36523 13.7121 8.47305C13.825 8.57188 13.9574 8.76367 13.9043 8.9832C13.8477 9.18789 13.7066 9.2918 13.5863 9.37148C13.4643 9.44631 13.3326 9.50413 13.1949 9.54336C12.6648 9.69687 12.1285 9.69531 11.6039 9.62852C11.341 9.58672 11.0848 9.53828 10.8348 9.41758C10.7188 9.3543 10.5812 9.27734 10.5406 9.11406C10.5184 8.93398 10.6734 8.84023 10.7812 8.7832L10.8094 8.83437C10.7063 8.89687 10.6039 8.99922 10.6336 9.09375C10.6633 9.18828 10.7801 9.25391 10.8887 9.29961C11.1125 9.38906 11.375 9.42148 11.623 9.44023C12.125 9.46719 12.6434 9.41953 13.1012 9.26211C13.3066 9.19609 13.5621 9.02734 13.5723 8.91055C13.6043 8.82695 13.4012 8.66055 13.1855 8.5875C12.7461 8.42578 12.2254 8.37656 11.7328 8.3582C11.2344 8.34687 10.7305 8.38516 10.2508 8.49102C10.0129 8.54414 9.77695 8.61523 9.57344 8.7125C9.48722 8.75392 9.40486 8.80295 9.32734 8.85898V9.45156C9.47266 9.55234 9.65508 9.63594 9.84414 9.70234C10.2883 9.8543 10.8008 9.93945 11.2914 9.9918C12.2855 10.0969 13.3066 10.0633 14.2832 9.88008C14.7633 9.78555 15.2387 9.65078 15.6375 9.42266V8.01562C15.4805 7.92188 15.3145 7.83594 15.1391 7.7625C14.6871 7.57305 14.1969 7.44766 13.698 7.34258C13.2634 7.25723 12.8256 7.18921 12.3855 7.13867H12.6512C12.7 7.13867 12.7484 7.13281 12.7957 7.12109L13.0082 7.01797L13.0488 6.99023C13.1086 6.93633 13.1535 6.87266 13.1832 6.80313C13.384 6.82773 13.5844 6.85195 13.7844 6.88633C14.2996 6.97656 14.8203 7.08984 15.3305 7.28281C15.441 7.32422 15.5504 7.37227 15.659 7.42383C15.7082 7.22812 15.9082 7.07734 16.159 7.07734H16.6273C16.9148 7.07734 17.1484 7.27109 17.1484 7.50938V11.5742C18.3539 11.2176 19.4953 10.6547 20.4562 9.8082L20.4969 9.85C19.7945 10.6176 18.9016 11.2148 17.9406 11.6344C17.6809 11.7465 17.4164 11.8469 17.1488 11.9387V12.2656C17.1488 12.3844 17.091 12.4926 16.9969 12.5703L16.7625 12.6828C16.7181 12.6925 16.6728 12.6976 16.6273 12.698H16.159C15.9039 12.698 15.7012 12.543 15.6563 12.3414C15.409 12.391 15.1602 12.4336 14.9109 12.468C13.0504 12.723 11.159 12.634 9.32266 12.2961C9.31908 12.351 9.30427 12.4046 9.27914 12.4536C9.25401 12.5026 9.2191 12.5459 9.17656 12.5809L8.94219 12.693C8.89961 12.7023 8.85352 12.7086 8.80703 12.7086H8.33867C8.05039 12.7086 7.81758 12.5148 7.81758 12.2762V11.9555C7.08711 11.7559 6.36484 11.5023 5.6957 11.123C5.24063 10.8555 4.78516 10.5297 4.51133 10.0355C4.37773 9.79023 4.31172 9.49258 4.36992 9.21133ZM21.2105 18.491C21.2105 20.007 17.4855 21.7023 12.5 21.7023C7.51406 21.7023 3.78867 20.007 3.78867 18.491V16.9387C4.17305 16.918 4.48008 16.6395 4.48008 16.2961V14.7902C4.48008 14.316 4.91719 13.9316 5.45664 13.9316C5.99609 13.9316 6.43398 14.316 6.43398 14.7902V16.648C6.43398 17.1996 6.94297 17.6473 7.56992 17.6473C8.19766 17.6473 8.70664 17.1996 8.70664 16.648V14.75C8.70664 14.2535 9.16445 13.8516 9.72891 13.8516C10.2941 13.8516 10.752 14.2535 10.752 14.75V15.9602C10.752 16.2363 11.0059 16.4598 11.3203 16.4598C11.634 16.4598 11.8879 16.2363 11.8879 15.9602V15C11.8879 14.6414 12.2191 14.3508 12.6273 14.3508C13.0348 14.3508 13.3652 14.6414 13.3652 15V16.6484C13.3652 17.2 13.875 17.6477 14.502 17.6477C15.1297 17.6477 15.6387 17.2 15.6387 16.6484V14.8008C15.6387 14.332 16.0711 13.9516 16.6047 13.9516C17.1383 13.9516 17.5707 14.332 17.5707 14.8008V16.1492C17.5707 16.425 17.8246 16.6484 18.1391 16.6484C18.4527 16.6484 18.7074 16.425 18.7074 16.1492V15.2051C18.7074 14.9594 18.9332 14.7602 19.2125 14.7602C19.4926 14.7602 19.7191 14.9594 19.7191 15.2051V16.6484C19.7191 17.2 20.2273 17.6477 20.8551 17.6477C20.9801 17.6477 21.098 17.6254 21.2105 17.5926V18.491Z" fill="white"/>
</g>
<defs>
<clipPath id="clip0_57_19605">
<rect width="25" height="25" fill="white"/>
</clipPath>
</defs>
</svg>
