<svg width="20" height="20" viewBox="0 0 20 20" fill="none" xmlns="http://www.w3.org/2000/svg">
<path d="M2.5 4.37503C2.33424 4.37503 2.17527 4.44087 2.05806 4.55808C1.94085 4.67529 1.875 4.83427 1.875 5.00003C1.875 5.16579 1.94085 5.32476 2.05806 5.44197C2.17527 5.55918 2.33424 5.62503 2.5 5.62503H3.8875L5.5275 12.1875C5.66687 12.7438 6.165 13.125 6.73812 13.125H14.5319C15.0962 13.125 15.5756 12.75 15.7238 12.2063L17.3438 6.25003H16.035L14.5312 11.875H6.7375L5.09812 5.31253C5.03041 5.04329 4.8743 4.80458 4.6548 4.6346C4.4353 4.46462 4.16511 4.37322 3.8875 4.37503H2.5ZM13.75 13.125C12.7219 13.125 11.875 13.9719 11.875 15C11.875 16.0282 12.7219 16.875 13.75 16.875C14.7781 16.875 15.625 16.0282 15.625 15C15.625 13.9719 14.7781 13.125 13.75 13.125ZM8.125 13.125C7.09688 13.125 6.25 13.9719 6.25 15C6.25 16.0282 7.09688 16.875 8.125 16.875C9.15312 16.875 10 16.0282 10 15C10 13.9719 9.15312 13.125 8.125 13.125ZM10 4.37503V7.50003H8.125L10.625 10L13.125 7.50003H11.25V4.37503H10ZM8.125 14.375C8.4775 14.375 8.75 14.6475 8.75 15C8.75 15.3525 8.4775 15.625 8.125 15.625C7.7725 15.625 7.5 15.3525 7.5 15C7.5 14.6475 7.7725 14.375 8.125 14.375ZM13.75 14.375C14.1025 14.375 14.375 14.6475 14.375 15C14.375 15.3525 14.1025 15.625 13.75 15.625C13.3975 15.625 13.125 15.3525 13.125 15C13.125 14.6475 13.3975 14.375 13.75 14.375Z" fill="#535353"/>
</svg>
