<svg width="20" height="20" viewBox="0 0 20 20" fill="none" xmlns="http://www.w3.org/2000/svg">
<path d="M15.6 2H4.4C3.63 2 3 2.6 3 3.33333V16.6667C3 17.4 3.63 18 4.4 18H15.6C16.37 18 17 17.4 17 16.6667V3.33333C17 2.6 16.37 2 15.6 2ZM7.2 15.3333C7.2 15.7 6.885 16 6.5 16H5.1C4.715 16 4.4 15.7 4.4 15.3333V15C4.4 14.6333 4.715 14.3333 5.1 14.3333H6.5C6.885 14.3333 7.2 14.6333 7.2 15V15.3333ZM7.2 12.6667C7.2 13.0333 6.885 13.3333 6.5 13.3333H5.1C4.715 13.3333 4.4 13.0333 4.4 12.6667V12.3333C4.4 11.9667 4.715 11.6667 5.1 11.6667H6.5C6.885 11.6667 7.2 11.9667 7.2 12.3333V12.6667ZM7.2 10C7.2 10.3667 6.885 10.6667 6.5 10.6667H5.1C4.715 10.6667 4.4 10.3667 4.4 10V9.66667C4.4 9.3 4.715 9 5.1 9H6.5C6.885 9 7.2 9.3 7.2 9.66667V10ZM11.4 15.3333C11.4 15.7 11.085 16 10.7 16H9.3C8.915 16 8.6 15.7 8.6 15.3333V15C8.6 14.6333 8.915 14.3333 9.3 14.3333H10.7C11.085 14.3333 11.4 14.6333 11.4 15V15.3333ZM11.4 12.6667C11.4 13.0333 11.085 13.3333 10.7 13.3333H9.3C8.915 13.3333 8.6 13.0333 8.6 12.6667V12.3333C8.6 11.9667 8.915 11.6667 9.3 11.6667H10.7C11.085 11.6667 11.4 11.9667 11.4 12.3333V12.6667ZM11.4 10C11.4 10.3667 11.085 10.6667 10.7 10.6667H9.3C8.915 10.6667 8.6 10.3667 8.6 10V9.66667C8.6 9.3 8.915 9 9.3 9H10.7C11.085 9 11.4 9.3 11.4 9.66667V10ZM15.6 15.3333C15.6 15.7 15.285 16 14.9 16H13.5C13.115 16 12.8 15.7 12.8 15.3333V15C12.8 14.6333 13.115 14.3333 13.5 14.3333H14.9C15.285 14.3333 15.6 14.6333 15.6 15V15.3333ZM15.6 12.6667C15.6 13.0333 15.285 13.3333 14.9 13.3333H13.5C13.115 13.3333 12.8 13.0333 12.8 12.6667V12.3333C12.8 11.9667 13.115 11.6667 13.5 11.6667H14.9C15.285 11.6667 15.6 11.9667 15.6 12.3333V12.6667ZM15.6 10C15.6 10.3667 15.285 10.6667 14.9 10.6667H13.5C13.115 10.6667 12.8 10.3667 12.8 10V9.66667C12.8 9.3 13.115 9 13.5 9H14.9C15.285 9 15.6 9.3 15.6 9.66667V10ZM15.6 7C15.6 7.36667 15.285 7.66667 14.9 7.66667H5.1C4.715 7.66667 4.4 7.36667 4.4 7V4.33333C4.4 3.96667 4.715 3.66667 5.1 3.66667H14.9C15.285 3.66667 15.6 3.96667 15.6 4.33333V7Z" fill="#535353"/>
</svg>
