<svg width="20" height="20" viewBox="0 0 20 20" fill="none" xmlns="http://www.w3.org/2000/svg">
<g clip-path="url(#clip0_57_50195)">
<path d="M16.6152 6.66642H17.5002C17.9422 6.66642 18.3661 6.84202 18.6787 7.15458C18.9912 7.46714 19.1668 7.89106 19.1668 8.33309V11.6664C19.1668 12.1084 18.9912 12.5324 18.6787 12.8449C18.3661 13.1575 17.9422 13.3331 17.5002 13.3331H16.6152C16.412 14.9442 15.6279 16.4257 14.41 17.4998C13.192 18.5738 11.624 19.1664 10.0002 19.1664V17.4998C11.3262 17.4998 12.598 16.973 13.5357 16.0353C14.4734 15.0976 15.0002 13.8258 15.0002 12.4998V7.49975C15.0002 6.17367 14.4734 4.9019 13.5357 3.96422C12.598 3.02654 11.3262 2.49975 10.0002 2.49975C8.67408 2.49975 7.40231 3.02654 6.46463 3.96422C5.52695 4.9019 5.00016 6.17367 5.00016 7.49975V13.3331H2.50016C2.05814 13.3331 1.63421 13.1575 1.32165 12.8449C1.00909 12.5324 0.833496 12.1084 0.833496 11.6664V8.33309C0.833496 7.89106 1.00909 7.46714 1.32165 7.15458C1.63421 6.84202 2.05814 6.66642 2.50016 6.66642H3.38516C3.58852 5.0555 4.37273 3.57415 5.59064 2.50032C6.80855 1.42649 8.37646 0.833984 10.0002 0.833984C11.6239 0.833984 13.1918 1.42649 14.4097 2.50032C15.6276 3.57415 16.4118 5.0555 16.6152 6.66642ZM2.50016 8.33309V11.6664H3.3335V8.33309H2.50016ZM16.6668 8.33309V11.6664H17.5002V8.33309H16.6668ZM6.46683 13.1539L7.35016 11.7406C8.14439 12.2381 9.06297 12.5013 10.0002 12.4998C10.9374 12.5013 11.8559 12.2381 12.6502 11.7406L13.5335 13.1539C12.4745 13.8174 11.2498 14.1683 10.0002 14.1664C8.75055 14.1683 7.52578 13.8174 6.46683 13.1539Z" fill="#535353"/>
</g>
<defs>
<clipPath id="clip0_57_50195">
<rect width="20" height="20" fill="white"/>
</clipPath>
</defs>
</svg>
