<svg width="24" height="24" viewBox="0 0 24 24" fill="none" xmlns="http://www.w3.org/2000/svg">
<g clip-path="url(#clip0_52_52972)">
<path d="M17.6129 15.5171C19.0653 13.5352 19.7159 11.0779 19.4343 8.63685C19.1528 6.19584 17.96 3.95113 16.0945 2.35182C14.2291 0.752509 11.8285 -0.0834673 9.37314 0.0111424C6.91777 0.105752 4.58866 1.12397 2.85178 2.86209C1.11491 4.60021 0.0983577 6.93004 0.00550496 9.38548C-0.0873478 11.8409 0.750346 14.2409 2.35099 16.1052C3.95164 17.9695 6.1972 19.1607 8.63841 19.4405C11.0796 19.7203 13.5365 19.068 15.5174 17.6141H15.5159C15.5609 17.6741 15.6089 17.7311 15.6629 17.7866L21.4379 23.5616C21.7191 23.8431 22.1007 24.0013 22.4986 24.0014C22.8965 24.0016 23.2782 23.8436 23.5596 23.5624C23.8411 23.2811 23.9993 22.8996 23.9994 22.5017C23.9996 22.1038 23.8416 21.7221 23.5604 21.4406L17.7854 15.6656C17.7318 15.6113 17.6741 15.5612 17.6129 15.5156V15.5171ZM17.9999 9.75113C17.9999 10.8345 17.7865 11.9073 17.3719 12.9083C16.9573 13.9092 16.3496 14.8187 15.5835 15.5848C14.8174 16.3508 13.908 16.9585 12.907 17.3731C11.9061 17.7877 10.8333 18.0011 9.74988 18.0011C8.66648 18.0011 7.59368 17.7877 6.59274 17.3731C5.59181 16.9585 4.68233 16.3508 3.91625 15.5848C3.15017 14.8187 2.54248 13.9092 2.12788 12.9083C1.71327 11.9073 1.49988 10.8345 1.49988 9.75113C1.49988 7.56309 2.36908 5.46467 3.91625 3.9175C5.46343 2.37032 7.56185 1.50113 9.74988 1.50113C11.9379 1.50113 14.0363 2.37032 15.5835 3.9175C17.1307 5.46467 17.9999 7.56309 17.9999 9.75113Z" fill="#535353"/>
</g>
<defs>
<clipPath id="clip0_52_52972">
<rect width="24" height="24" fill="white"/>
</clipPath>
</defs>
</svg>
