<svg width="60" height="81" viewBox="0 0 60 81" fill="none" xmlns="http://www.w3.org/2000/svg">
<path d="M71.3938 16.6784L39.1696 0.51174C38.609 0.228585 37.9899 0.080393 37.3619 0.0789896C36.7338 0.0775861 36.1141 0.223011 35.5523 0.503657L3.10981 16.6703C1.90943 17.2766 1.08089 18.4365 0.911141 19.7703C0.858599 20.1623 -3.71657 59.1401 35.431 80.4276C36.0328 80.7558 36.7085 80.9248 37.3939 80.9184C38.0794 80.912 38.7518 80.7306 39.3474 80.3912C76.9632 59.1361 73.7581 21.492 73.6046 19.8996C73.5384 19.2196 73.3009 18.5675 72.9142 18.0041C72.5276 17.4408 72.0045 16.9847 71.3938 16.6784Z" fill="#F24E1E" fill-opacity="0.2"/>
</svg>
