<svg width="25" height="25" viewBox="0 0 25 25" fill="none" xmlns="http://www.w3.org/2000/svg">
<g clip-path="url(#clip0_57_21952)">
<path d="M10.4269 0.0903854C8.87596 0.0903854 7.78269 1.18846 7.78269 2.73462C7.78269 4.43654 9.12692 5.54327 10.4269 6.61058C10.8519 6.95962 11.2673 7.31058 11.6587 7.69231H4.80769C3.54231 7.69231 2.49135 8.51058 2.10288 9.64519C2.10288 9.64519 2.29904 11.5385 5.28846 11.5385C8.06731 11.5385 8.17019 10.125 8.17308 10.0663C8.17952 9.94366 8.23316 9.82822 8.32276 9.74417C8.41236 9.66012 8.531 9.61398 8.65385 9.61539C8.78006 9.61947 8.89998 9.67144 8.98927 9.76073C9.07856 9.85002 9.13053 9.96994 9.13461 10.0962C9.13846 10.1452 9.27404 11.5385 12.5 11.5385C15.726 11.5385 15.8606 10.125 15.8654 10.0663C15.8759 9.93985 15.9349 9.82233 16.0301 9.7383C16.1252 9.65427 16.2491 9.61024 16.376 9.61539C16.4991 9.62064 16.6152 9.67391 16.6995 9.76378C16.7838 9.85365 16.8295 9.97296 16.8269 10.0962C16.8288 10.1471 16.9135 11.5385 19.7115 11.5385C22.7913 11.5385 22.8971 9.64519 22.8971 9.64519C22.5087 8.51154 21.4558 7.69231 20.1923 7.69231H13.3413C13.7361 7.31409 14.1471 6.95317 14.5731 6.61058C15.8721 5.54327 17.2173 4.43558 17.2173 2.73462C17.2173 1.18846 16.125 0.0903854 14.5731 0.0903854C13.6788 0.0903854 12.9221 0.73077 12.5 1.17212C12.0798 0.729809 11.3202 0.0903854 10.4269 0.0903854ZM8.68269 11.2683C8.21346 11.8798 7.25192 12.5 5.28846 12.5C3.36058 12.5 2.40288 11.899 1.92308 11.2981V15.3846H23.0769V11.2981C22.5971 11.8942 21.6365 12.5 19.7115 12.5C17.7404 12.5 16.7846 11.8779 16.3163 11.2683C15.7837 11.8769 14.6971 12.5 12.5 12.5C10.2952 12.5 9.21346 11.8798 8.68365 11.2683H8.68269ZM2.88462 16.3462C1.61923 16.3462 0.568269 17.1644 0.179808 18.299C0.180769 18.299 0.375962 20.1923 3.36538 20.1923C6.14423 20.1923 7.20865 18.7788 7.21154 18.7202C7.21798 18.5975 7.27162 18.4821 7.36122 18.398C7.45083 18.314 7.56946 18.2678 7.69231 18.2692C7.81852 18.2733 7.93844 18.3253 8.02773 18.4146C8.11703 18.5039 8.16899 18.6238 8.17308 18.75C8.17692 18.799 9.27404 20.1923 12.5 20.1923C15.726 20.1923 16.8221 18.7788 16.8269 18.7202C16.8375 18.5937 16.8965 18.4762 16.9916 18.3921C17.0868 18.3081 17.2107 18.2641 17.3375 18.2692C17.4606 18.2745 17.5768 18.3278 17.6611 18.4176C17.7453 18.5075 17.7911 18.6268 17.7885 18.75C17.7904 18.801 18.8365 20.1923 21.6346 20.1923C24.7144 20.1923 24.8202 18.299 24.8202 18.299C24.4317 17.1654 23.3788 16.3462 22.1154 16.3462H2.88462ZM7.72212 19.9221C7.25192 20.5337 5.32885 21.1538 3.36538 21.1538C1.4375 21.1538 0.479808 20.5529 0 19.9519V23.0769C0 24.6692 1.29231 25 2.88462 25H22.1154C23.7077 25 25 24.6692 25 23.0769V19.9519C24.5202 20.5481 23.5596 21.1538 21.6346 21.1538C19.6635 21.1538 17.7462 20.5317 17.2779 19.9221C16.7452 20.5308 14.6971 21.1538 12.5 21.1538C10.2952 21.1538 8.25192 20.5337 7.72212 19.9221Z" fill="white"/>
</g>
<defs>
<clipPath id="clip0_57_21952">
<rect width="25" height="25" fill="white"/>
</clipPath>
</defs>
</svg>
