<svg width="60" height="60" viewBox="0 0 60 60" fill="none" xmlns="http://www.w3.org/2000/svg">
<path d="M32.5 35C24.1 35 21.35 38.375 20.45 40.6C22.0363 41.2818 23.3389 42.4898 24.1384 44.0202C24.9378 45.5505 25.1851 47.3097 24.8386 49.0012C24.4921 50.6927 23.5729 52.2129 22.2361 53.3057C20.8993 54.3984 19.2266 54.9968 17.5 55C13.35 55 10 51.65 10 47.5C10 44.225 12.075 41.45 15 40.425V19.575C13.5351 19.061 12.2666 18.1036 11.3706 16.8357C10.4746 15.5679 9.99554 14.0525 10 12.5C10 8.35 13.35 5 17.5 5C21.65 5 25 8.35 25 12.5C25 15.775 22.925 18.55 20 19.575V32.8C22.2 31.175 25.4 30 30 30C36.675 30 38.9 26.65 39.625 24.425C38.2573 23.8552 37.0885 22.8938 36.2656 21.6617C35.4427 20.4296 35.0024 18.9817 35 17.5C35 13.35 38.35 10 42.5 10C46.65 10 50 13.35 50 17.5C50 20.85 47.8 23.75 44.775 24.65C44.125 28.225 41.7 35 32.5 35ZM17.5 45C16.125 45 15 46.125 15 47.5C15 48.875 16.125 50 17.5 50C18.875 50 20 48.875 20 47.5C20 46.125 18.875 45 17.5 45ZM17.5 10C16.125 10 15 11.125 15 12.5C15 13.875 16.125 15 17.5 15C18.875 15 20 13.875 20 12.5C20 11.125 18.875 10 17.5 10ZM42.5 15C41.125 15 40 16.125 40 17.5C40 18.875 41.125 20 42.5 20C43.875 20 45 18.875 45 17.5C45 16.125 43.875 15 42.5 15ZM42.5 35V42.5H35V47.5H42.5V55H47.5V47.5H55V42.5H47.5V35H42.5Z" fill="#003F66"/>
</svg>
