<svg width="20" height="20" viewBox="0 0 20 20" fill="none" xmlns="http://www.w3.org/2000/svg">
<path d="M16.615 6.66667H17.5C17.942 6.66667 18.3659 6.84226 18.6785 7.15482C18.9911 7.46738 19.1667 7.8913 19.1667 8.33333V11.6667C19.1667 12.1087 18.9911 12.5326 18.6785 12.8452C18.3659 13.1577 17.942 13.3333 17.5 13.3333H16.615C16.4118 14.9444 15.6277 16.426 14.4098 17.5C13.1919 18.574 11.6238 19.1666 10 19.1667V17.5C11.3261 17.5 12.5978 16.9732 13.5355 16.0355C14.4732 15.0979 15 13.8261 15 12.5V7.5C15 6.17392 14.4732 4.90215 13.5355 3.96446C12.5978 3.02678 11.3261 2.5 10 2.5C8.67391 2.5 7.40214 3.02678 6.46446 3.96446C5.52678 4.90215 5 6.17392 5 7.5V13.3333H2.49999C2.05797 13.3333 1.63404 13.1577 1.32148 12.8452C1.00892 12.5326 0.833328 12.1087 0.833328 11.6667V8.33333C0.833328 7.8913 1.00892 7.46738 1.32148 7.15482C1.63404 6.84226 2.05797 6.66667 2.49999 6.66667H3.38499C3.58835 5.05574 4.37256 3.57439 5.59047 2.50056C6.80838 1.42673 8.37629 0.834229 10 0.834229C11.6237 0.834229 13.1916 1.42673 14.4095 2.50056C15.6274 3.57439 16.4116 5.05574 16.615 6.66667ZM2.49999 8.33333V11.6667H3.33333V8.33333H2.49999ZM16.6667 8.33333V11.6667H17.5V8.33333H16.6667ZM6.46666 13.1542L7.35 11.7408C8.14423 12.2384 9.0628 12.5015 10 12.5C10.9372 12.5015 11.8558 12.2384 12.65 11.7408L13.5333 13.1542C12.4744 13.8176 11.2496 14.1686 10 14.1667C8.75038 14.1686 7.52561 13.8176 6.46666 13.1542Z" fill="#F24E1E"/>
</svg>
