<svg width="18" height="18" viewBox="0 0 18 18" fill="none" xmlns="http://www.w3.org/2000/svg">
<path d="M17.4863 8.86329L9.44141 0.824233C9.38348 0.766194 9.31468 0.720149 9.23894 0.688732C9.16319 0.657315 9.082 0.641144 9 0.641144C8.918 0.641144 8.83681 0.657315 8.76106 0.688732C8.68532 0.720149 8.61652 0.766194 8.55859 0.824233L0.513672 8.86329C0.279297 9.09767 0.146484 9.41603 0.146484 9.74806C0.146484 10.4375 0.707031 10.9981 1.39648 10.9981H2.24414V16.7344C2.24414 17.0801 2.52344 17.3594 2.86914 17.3594H7.75V12.9844H9.9375V17.3594H15.1309C15.4766 17.3594 15.7559 17.0801 15.7559 16.7344V10.9981H16.6035C16.9355 10.9981 17.2539 10.8672 17.4883 10.6309C17.9746 10.1426 17.9746 9.35158 17.4863 8.86329Z" fill="white"/>
</svg>
