<svg width="20" height="20" viewBox="0 0 20 20" fill="none" xmlns="http://www.w3.org/2000/svg">
<path d="M18.6719 13.4082L18.6699 13.4063L18.668 13.4043C17.8066 11.582 16.4727 10.6445 14.6973 10.6445C12.9219 10.6445 11.5879 11.584 10.7246 13.4043V13.4063C10.6191 13.6309 10.6191 13.8926 10.7246 14.1172C11.5879 15.9375 12.9219 16.875 14.6973 16.875C16.4727 16.875 17.8066 15.9355 18.6699 14.1152C18.7754 13.8906 18.7754 13.6309 18.6719 13.4082ZM14.6973 15.625C13.4844 15.625 12.5996 15.0391 11.9414 13.7598C12.5977 12.4805 13.4844 11.8945 14.6973 11.8945C15.9102 11.8945 16.7949 12.4805 17.4531 13.7598C16.7969 15.0391 15.9102 15.625 14.6973 15.625Z" fill="#F24E1E"/>
<path d="M13.6133 13.7695C13.6133 14.0596 13.7285 14.3378 13.9336 14.5429C14.1388 14.748 14.417 14.8633 14.707 14.8633C14.9971 14.8633 15.2753 14.748 15.4804 14.5429C15.6855 14.3378 15.8008 14.0596 15.8008 13.7695C15.8008 13.4795 15.6855 13.2013 15.4804 12.9961C15.2753 12.791 14.9971 12.6758 14.707 12.6758C14.417 12.6758 14.1388 12.791 13.9336 12.9961C13.7285 13.2013 13.6133 13.4795 13.6133 13.7695ZM2.65625 4.53125H16.4062V9.47266H17.8125V3.75C17.8125 3.4043 17.5332 3.125 17.1875 3.125H1.875C1.5293 3.125 1.25 3.4043 1.25 3.75V13.9062C1.25 14.252 1.5293 14.5312 1.875 14.5312H8.75V13.125H2.65625V4.53125Z" fill="#F24E1E"/>
<path d="M14.1582 6.60352L13.4395 5.88477C13.3789 5.82422 13.2793 5.82422 13.2188 5.88477L9.62891 9.47852L7.94727 7.79492C7.88672 7.73438 7.78711 7.73438 7.72656 7.79492L4.9082 10.6133C4.84766 10.6738 4.84766 10.7734 4.9082 10.834L5.62695 11.5527C5.6875 11.6133 5.78711 11.6133 5.84766 11.5527L7.83594 9.56445L9.51758 11.248C9.57812 11.3086 9.67773 11.3086 9.73828 11.248L14.1582 6.82422C14.2207 6.76367 14.2207 6.66406 14.1582 6.60352Z" fill="#F24E1E"/>
</svg>
