<svg width="20" height="20" viewBox="0 0 20 20" fill="none" xmlns="http://www.w3.org/2000/svg">
<path d="M14.93 4.975C15.7251 5.79134 16.3046 6.79266 16.6163 7.88875H18.75V11.64H16.6163C16.3049 12.737 15.7254 13.7392 14.93 14.5563L15.9987 16.4062L12.7513 18.2812L11.685 16.4313C10.5794 16.7101 9.42185 16.7101 8.31625 16.4313L7.24875 18.2812L4.00125 16.4062L5.07 14.5563C4.27456 13.7392 3.69505 12.737 3.38375 11.64H1.25V7.89H3.38375C3.69505 6.79302 4.27456 5.79079 5.07 4.97375L4 3.125L7.24625 1.25H7.25L8.3175 3.0975C9.42311 2.81865 10.5806 2.81865 11.6862 3.0975L12.75 1.25H12.7525L16 3.125L14.9312 4.975H14.93ZM13.75 9.765C13.75 8.77044 13.3549 7.81661 12.6517 7.11335C11.9484 6.41009 10.9946 6.015 10 6.015C9.00544 6.015 8.05161 6.41009 7.34835 7.11335C6.64509 7.81661 6.25 8.77044 6.25 9.765C6.25 10.7596 6.64509 11.7134 7.34835 12.4166C8.05161 13.1199 9.00544 13.515 10 13.515C10.9946 13.515 11.9484 13.1199 12.6517 12.4166C13.3549 11.7134 13.75 10.7596 13.75 9.765Z" fill="#F24E1E"/>
</svg>
