<svg width="20" height="20" viewBox="0 0 20 20" fill="none" xmlns="http://www.w3.org/2000/svg">
<path d="M17.3611 4.11112C16.1022 3.77513 14.8723 3.33854 13.6833 2.80557C12.5136 2.29813 11.3844 1.70195 10.3056 1.02223L10 0.833344L9.70001 1.02779C8.62121 1.7075 7.49199 2.30369 6.32223 2.81112C5.13128 3.34248 3.89953 3.77721 2.6389 4.11112L2.22223 4.21668V8.85001C2.22223 16.2889 9.7389 19.0722 9.81112 19.1L10 19.1667L10.1889 19.1C10.2667 19.1 17.7778 16.2945 17.7778 8.85001V4.21668L17.3611 4.11112ZM14.8222 7.80557L8.61667 13.8333L5.10556 10.3167C4.95822 10.1693 4.87544 9.9695 4.87544 9.76112C4.87544 9.55275 4.95822 9.35291 5.10556 9.20557C5.2529 9.05822 5.45274 8.97545 5.66112 8.97545C5.86949 8.97545 6.06933 9.05822 6.21667 9.20557L8.63334 11.6667L13.7389 6.66668C13.8119 6.59372 13.8985 6.53585 13.9938 6.49636C14.0891 6.45688 14.1913 6.43656 14.2945 6.43656C14.3976 6.43656 14.4998 6.45688 14.5951 6.49636C14.6904 6.53585 14.7771 6.59372 14.85 6.66668C14.923 6.73963 14.9808 6.82625 15.0203 6.92157C15.0598 7.01689 15.0801 7.11906 15.0801 7.22223C15.0801 7.32541 15.0598 7.42757 15.0203 7.5229C14.9808 7.61822 14.923 7.70483 14.85 7.77779L14.8222 7.80557Z" fill="#F24E1E"/>
</svg>
