<svg width="80" height="80" viewBox="0 0 80 80" fill="none" xmlns="http://www.w3.org/2000/svg">
<g opacity="0.8" clip-path="url(#clip0_106_3030)">
<path d="M40 80C62.0914 80 80 62.0914 80 40C80 17.9086 62.0914 0 40 0C17.9086 0 0 17.9086 0 40C0 62.0914 17.9086 80 40 80Z" fill="#C1C7D0"/>
<path d="M64.375 63.8368C58.1837 69.95 49.594 73.75 40.1024 73.75C30.5035 73.75 21.8309 69.855 15.625 63.6182V59.5C15.625 54.256 19.9881 50 25.375 50H54.625C60.0119 50 64.375 54.256 64.375 59.5V63.8368Z" fill="white"/>
<path d="M39.9976 15C32.0586 15 25.625 21.4336 25.625 29.3726C25.625 37.3164 32.0586 43.75 39.9976 43.75C47.9366 43.75 54.375 37.3164 54.375 29.3726C54.375 21.4336 47.9366 15 39.9976 15Z" fill="white"/>
</g>
<defs>
<clipPath id="clip0_106_3030">
<rect width="80" height="80" fill="white"/>
</clipPath>
</defs>
</svg>
