<svg width="33" height="33" viewBox="0 0 33 33" fill="none" xmlns="http://www.w3.org/2000/svg">
<path d="M32.9886 27.393C33.1137 27.055 18.7499 16.2092 18.7499 16.2092C16.9517 14.8822 16.0059 14.8613 14.2276 16.2092C14.2276 16.2092 -0.115257 27.0462 0.00546387 27.3796L0.00256348 27.3821C0.0040459 27.385 0.00643066 27.387 0.00842871 27.3896C0.130048 27.7212 0.306986 28.0297 0.531724 28.3021C0.626663 28.4172 0.741067 28.5136 0.851089 28.6138L0.845739 28.618C0.854505 28.6258 0.866171 28.6294 0.874937 28.6372C1.34125 29.0532 1.92933 29.3226 2.58262 29.3995C2.59287 29.4007 2.60112 29.406 2.61137 29.4073H2.65081C2.75014 29.4167 2.84456 29.4406 2.94627 29.4406H30.063C31.3983 29.4406 32.5296 28.6009 32.979 27.4238C32.9843 27.415 32.9926 27.4087 32.9975 27.3997L32.9886 27.393Z" fill="#96A9B2"/>
<path d="M16.5086 14.9645L0.0783691 27.2871V9.83006C0.0783691 8.12849 1.45747 6.74939 3.15904 6.74939H29.8581C31.5597 6.74939 32.9388 8.12849 32.9388 9.83006V27.2871L16.5086 14.9645Z" fill="#B9C5C6"/>
<path d="M0.27002 8.75893L14.2979 19.7771C16.0684 21.0837 16.9997 21.1043 18.7505 19.7771L32.7564 8.7764C32.5134 8.33593 32.1496 7.98794 31.7336 7.71047L31.9262 7.55952C31.4561 7.13149 30.855 6.85402 30.1879 6.78235L2.83042 6.78332C2.16513 6.85402 1.56314 7.13246 1.09392 7.55952L1.28516 7.7086C0.873945 7.98221 0.513523 8.3242 0.27002 8.75893Z" fill="#EDECE6"/>
<path d="M0.265412 8.78199C0.142242 9.11489 14.2847 19.7935 14.2847 19.7935C16.0553 21.1 16.9865 21.1206 18.7374 19.7935C18.7374 19.7935 32.8592 9.12353 32.7403 8.7952L32.7432 8.79282C32.7418 8.78992 32.7394 8.78805 32.7375 8.78541C32.6177 8.45897 32.4435 8.1552 32.2222 7.88699C32.1288 7.77362 32.0161 7.67875 31.9078 7.58L31.9131 7.57594C31.9045 7.56827 31.893 7.56466 31.8844 7.55699C31.4252 7.14746 30.8462 6.88217 30.2031 6.80644C30.193 6.80521 30.1848 6.79999 30.1748 6.79877H30.136C30.0382 6.78942 29.9452 6.76596 29.845 6.76596H3.14595C1.83124 6.76596 0.717357 7.59277 0.275015 8.7517C0.26973 8.76033 0.261609 8.76659 0.256775 8.77542L0.265412 8.78199Z" fill="#DCE2E2"/>
<path d="M18.7817 9.96735H16.2918C16.1866 9.96735 16.0857 10.0091 16.0113 10.0835C15.9369 10.1579 15.8951 10.2588 15.8951 10.3641V11.7641C15.8951 11.8693 15.9369 11.9702 16.0113 12.0446C16.0857 12.119 16.1866 12.1608 16.2918 12.1608H18.3166C18.4218 12.1608 18.5227 12.2026 18.5971 12.277C18.6715 12.3514 18.7133 12.4523 18.7133 12.5575V13.3062C18.7133 13.4114 18.6715 13.5123 18.5971 13.5867C18.5227 13.6611 18.4218 13.7029 18.3166 13.7029H16.2918C16.1866 13.7029 16.0857 13.7447 16.0113 13.8191C15.9369 13.8935 15.8951 13.9944 15.8951 14.0996V15.6193C15.8951 15.7245 15.9369 15.8254 16.0113 15.8998C16.0857 15.9742 16.1866 16.016 16.2918 16.016H18.9547C19.0599 16.016 19.1608 16.0578 19.2352 16.1322C19.3096 16.2066 19.3514 16.3075 19.3514 16.4127V17.2146C19.3514 17.3198 19.3096 17.4207 19.2352 17.4951C19.1608 17.5695 19.0599 17.6113 18.9547 17.6113H14.0718C13.9665 17.6113 13.8656 17.5695 13.7912 17.4951C13.7168 17.4207 13.675 17.3198 13.675 17.2146V8.79533C13.675 8.69012 13.7168 8.58921 13.7912 8.51481C13.8656 8.44042 13.9665 8.39862 14.0718 8.39862H18.8935C19.1351 8.39862 19.3206 8.61273 19.2861 8.85192L19.1744 9.62716C19.1608 9.72161 19.1136 9.80799 19.0415 9.87047C18.9694 9.93295 18.8772 9.96734 18.7817 9.96735Z" fill="#597B91"/>
</svg>
