<svg width="115" height="59" viewBox="0 0 115 59" fill="none" xmlns="http://www.w3.org/2000/svg">
<g clip-path="url(#clip0_102_2960)">
<path fill-rule="evenodd" clip-rule="evenodd" d="M14.8367 11.4168H38.5743V4.74621L49.5499 4.50403C49.5499 4.50403 59.2173 4.29789 66.4075 0C66.4075 0 72.6003 4.16023 84.8812 4.6071L94.2054 4.74477V23.93C94.2054 23.93 93.8621 35.8939 84.0915 46.897C74.321 57.8994 66.4082 59 66.4082 59C66.4082 59 52.6474 55.2174 43.9774 40.2955H50.8928C50.8928 40.2955 51.6579 40.2264 51.6579 39.3333C51.6579 38.4389 51.6579 37.9495 51.6579 37.9495C51.6579 37.9495 51.6926 37.2784 51.0565 37.2784C50.4197 37.2784 28.0148 37.2784 28.0148 37.2784C28.0148 37.2784 26.8537 37.1401 26.8977 35.7908C26.9402 34.4415 28.3422 34.4675 28.3422 34.4675H53.2078C53.2078 34.4675 53.9297 34.4754 53.9297 33.599C53.9297 32.7218 53.9297 32.4472 53.9297 32.4472C53.9297 32.4472 53.9643 31.6385 53.2417 31.6385C52.519 31.6385 10.0228 31.6385 10.0228 31.6385C10.0228 31.6385 8.70738 31.4237 8.70738 30.2027C8.70738 28.9825 9.73939 28.6906 10.0401 28.6726H46.1207C46.1207 28.6726 47.0063 28.8355 47.0842 27.9071V26.6011C47.0842 26.6011 46.9977 25.8011 46.1892 25.8011C45.3815 25.8011 17.575 25.8011 17.575 25.8011C17.575 25.8011 16.543 25.5257 16.543 24.6832V23.9444C16.543 23.9444 16.698 23.0672 17.5404 22.9987C18.3834 22.9295 43.8245 22.9987 43.8245 22.9987C43.8245 22.9987 44.7022 22.9634 44.7022 21.914V20.9258C44.7022 20.9258 44.6762 20.0667 43.9456 20.0667C43.2144 20.0667 22.9853 20.0667 22.9853 20.0667C22.9853 20.0667 21.7816 19.9802 21.7816 18.6223C21.7816 17.2637 23.0113 17.1346 23.0113 17.1346H47.2486C47.2486 17.1346 47.8674 17.1 47.8674 16.1544C47.8674 15.2095 47.8674 15.1064 47.8674 15.1064C47.8674 15.1064 47.8508 14.3323 47.1628 14.3323C46.4741 14.3323 14.8583 14.3323 14.8583 14.3323C14.8583 14.3323 13.5335 14.1774 13.6027 12.8014C13.6713 11.4269 14.8367 11.4168 14.8367 11.4168V11.4168ZM78.3445 27.4365C78.2998 27.3507 78.3235 18.241 78.3235 16.486C78.3235 16.3238 78.3034 15.8928 78.3322 15.7616C78.4591 15.7342 79.7472 15.7421 79.8012 15.7746C80.1409 15.7674 80.4568 16.0254 80.596 16.1811C80.7676 16.3728 80.9537 16.6762 80.9515 17.0431C80.9898 17.1072 80.9667 18.6583 80.9667 18.7232C81.2999 18.7232 82.1343 18.7081 82.4559 18.7217L82.528 18.739C82.5562 19.3012 82.5381 19.8202 82.2295 20.1575C81.7506 20.6815 81.4102 20.559 80.9566 20.6152V25.6C80.9566 26.2724 80.8044 26.9262 81.527 27.0256C81.8025 27.0638 82.2287 27.0386 82.5194 27.0386C82.5468 27.1402 82.5302 28.7814 82.5302 29.0315C81.5977 29.1 80.6573 29.1151 79.7248 29.007C79.277 28.9544 78.9481 28.7836 78.7252 28.5407C78.5385 28.3389 78.3228 27.8286 78.3445 27.4365V27.4365ZM67.9746 25.7261C68.1571 25.7045 70.5867 25.711 70.6617 25.7326C70.6891 27.0213 71.8978 27.3327 73.1743 27.2426C73.7657 27.2015 74.3196 27.0278 74.4458 26.5146C74.5922 25.9171 74.0354 25.6346 73.5558 25.45C72.5397 25.0594 71.3577 25.0082 70.3668 24.6168C69.4033 24.2356 68.61 23.6373 68.3518 22.5915C68.2112 22.0207 68.266 21.3648 68.4347 20.8285C68.6677 20.0883 69.1833 19.5477 69.8158 19.1888C71.3872 18.2965 74.0866 18.4046 75.4713 19.3546C75.8549 19.6177 76.1881 19.9701 76.4326 20.4134C76.6389 20.7889 76.8819 21.4952 76.8559 22.0041C76.3922 22.0041 75.1129 22.0437 74.7407 21.9428C74.4429 21.8621 74.2215 21.7014 74.1032 21.4895C73.9719 21.2509 73.959 21.0765 73.607 20.8783C73.0546 20.5669 71.4269 20.4891 71.0245 21.1111C70.8327 21.408 70.9704 21.7446 71.142 21.9299C71.4471 22.2607 72.2036 22.4863 72.6637 22.5886C73.2839 22.7263 73.8515 22.8373 74.4422 23.0096C74.9939 23.171 75.5369 23.3771 75.9913 23.6417C77.0896 24.2803 77.3716 25.5048 77.1055 26.7236C76.7103 28.5335 75.0162 29.203 73.1202 29.3249C71.776 29.4106 70.4223 29.2701 69.4509 28.6416C69.003 28.3518 68.6439 27.9864 68.377 27.5157C68.085 26.999 67.9955 26.3914 67.9746 25.7261V25.7261ZM86.2991 21.4534H83.7072C83.992 19.498 85.4906 18.5762 87.6397 18.5762C89.0958 18.5762 91.0077 18.7448 91.7873 20.0436C92.0058 20.4069 92.1774 20.9035 92.1774 21.4188V25.1358C92.1774 26.4274 91.7267 27.5698 90.7776 28.3259C89.9634 28.9738 88.5455 29.3667 87.2287 29.3667C86.5803 29.3667 86.1267 29.3321 85.5029 29.1295C85.1142 29.0027 84.6512 28.7454 84.4218 28.5306C84.1197 28.2495 83.9199 28.0441 83.6963 27.5741C83.123 26.3697 83.3552 24.5441 84.3851 23.7404C84.5675 23.597 84.6418 23.5292 84.8596 23.411C86.6164 22.4582 88.4886 22.9043 89.3489 22.1612C89.6764 21.8787 89.685 21.3806 89.2941 21.052C88.8109 20.6455 86.6986 20.4696 86.3589 21.3713C86.3308 21.4455 86.3524 21.4311 86.2991 21.4534V21.4534ZM60.897 22.2859L60.8854 23.1342C60.8854 23.7209 60.9063 28.9911 60.8782 29.1454C60.7794 29.2002 58.8171 29.1627 58.3678 29.167C58.1529 29.1692 58.2272 29.1612 58.207 29.1339C58.2286 28.9111 58.2113 25.7023 58.2113 25.3859C58.2113 24.4287 58.1615 22.6002 58.3188 21.7461C58.7176 19.5888 60.2313 18.5747 62.6588 18.5762C65.1065 18.579 66.6123 19.5477 66.9974 21.7461C67.1034 22.3493 67.0941 22.9022 67.0941 23.5271V29.1483C65.7649 29.1483 64.456 29.3594 64.4517 27.8163C64.4481 26.4937 64.4517 25.1711 64.4517 23.8485C64.4517 22.6967 64.6788 21.3323 63.3576 20.9712C62.842 20.83 62.115 20.848 61.652 21.0729C61.4054 21.1925 61.2554 21.3244 61.1249 21.5298C61.0217 21.6934 60.8724 22.0473 60.897 22.2859V22.2859ZM55.3345 15.7746C55.3936 15.7407 56.7249 15.7335 56.8656 15.7616L56.8569 29.1483C56.7271 29.1757 54.6689 29.1504 54.2542 29.1569C54.0811 29.1591 54.1273 29.1533 54.1157 29.1252V18.2014C54.1157 17.4121 53.978 16.4132 54.6292 15.9836C54.803 15.8697 55.0835 15.7623 55.3345 15.7746V15.7746ZM89.6295 23.9235C89.4528 23.9689 89.1975 24.0885 89.0006 24.1541C88.7799 24.2284 88.5614 24.2983 88.3292 24.3595C87.5467 24.5642 86.351 24.6471 86.0481 25.5459C85.888 26.0238 86.0467 26.6076 86.3056 26.8808C86.8349 27.4422 88.327 27.2476 88.9177 26.6804C89.0785 26.5261 89.1686 26.436 89.3071 26.2112C89.4167 26.0331 89.5033 25.8155 89.5559 25.5848C89.6497 25.1682 89.6634 24.3761 89.6295 23.9235ZM21.5177 37.3685H22.8807C23.6812 37.3685 24.3368 38.023 24.3368 38.823V38.8238C24.3368 39.6238 23.6812 40.279 22.8807 40.279H21.5177C20.7165 40.279 20.0616 39.6238 20.0616 38.8238V38.823C20.0616 38.023 20.7165 37.3685 21.5177 37.3685ZM1.47756 28.9104H6.22941C7.02992 28.9104 7.68547 29.5649 7.68547 30.3649C7.68547 31.1657 7.02992 31.8201 6.22941 31.8201H1.47756C0.677048 31.8201 0.0222168 31.1657 0.0222168 30.3649C0.0222168 29.5649 0.677048 28.9104 1.47756 28.9104ZM11.8416 17.1512H17.5137C18.3149 17.1512 18.969 17.8057 18.969 18.6057C18.969 19.4072 18.3149 20.0616 17.5137 20.0616H11.8416C11.0411 20.0616 10.3856 19.4072 10.3856 18.6057C10.3856 17.8057 11.0411 17.1512 11.8416 17.1512V17.1512Z" fill="#D02128"/>
<path fill-rule="evenodd" clip-rule="evenodd" d="M96.2053 17.7826V29.4258H98.8831V21.4671H99.5444C99.5444 21.4671 100.656 21.2581 100.656 19.9377V19.4425H98.9011V18.6605C98.9011 18.6605 98.927 18.1386 99.5098 17.9909H100.657V15.7753H98.4143C98.4143 15.7753 96.5363 15.7926 96.2053 17.7826V17.7826ZM108.856 29.4863H106.127V22.4308C106.127 22.4308 106.197 18.7116 109.986 18.7116H111.465C111.465 18.7116 114.681 18.6425 115.151 21.927V29.451H113.568C113.568 29.451 112.508 29.4863 112.508 28.3569C112.508 27.2267 112.508 22.239 112.508 22.239C112.508 22.239 112.334 21.075 111.186 21.075H109.9C109.9 21.075 108.822 21.1795 108.822 22.309L108.856 29.4863ZM101.9 18.8162V29.4431H104.631V19.7719C104.631 19.7719 104.64 19.0663 103.804 18.8421L101.9 18.8162V18.8162ZM101.9 15.7227V17.8345H104.631V16.6791C104.631 16.6791 104.64 15.9728 103.804 15.7493L101.9 15.7227V15.7227Z" fill="#101940"/>
</g>
<defs>
<clipPath id="clip0_102_2960">
<rect width="115" height="59" fill="white"/>
</clipPath>
</defs>
</svg>
