<svg width="80" height="40" viewBox="0 0 80 40" fill="none" xmlns="http://www.w3.org/2000/svg">
<g clip-path="url(#clip0_102_3024)">
<path fill-rule="evenodd" clip-rule="evenodd" d="M10.3252 7.74023H26.8384V3.21777L34.4736 3.05358C34.4736 3.05358 41.1987 2.91383 46.2006 0C46.2006 0 50.5086 2.82049 59.0519 3.12346L65.5382 3.21679V16.2237C65.5382 16.2237 65.2994 24.3348 58.5025 31.7946C51.7056 39.2538 46.2011 40 46.2011 40C46.2011 40 36.6283 37.4356 30.597 27.319H35.4077C35.4077 27.319 35.94 27.2721 35.94 26.6667C35.94 26.0602 35.94 25.7285 35.94 25.7285C35.94 25.7285 35.9641 25.2735 35.5216 25.2735C35.0786 25.2735 19.4926 25.2735 19.4926 25.2735C19.4926 25.2735 18.6849 25.1797 18.7155 24.2649C18.7451 23.3502 19.7204 23.3678 19.7204 23.3678H37.0182C37.0182 23.3678 37.5203 23.3732 37.5203 22.779C37.5203 22.1843 37.5203 21.9981 37.5203 21.9981C37.5203 21.9981 37.5444 21.4498 37.0417 21.4498C36.539 21.4498 6.97646 21.4498 6.97646 21.4498C6.97646 21.4498 6.06138 21.3042 6.06138 20.4764C6.06138 19.6491 6.7793 19.4512 6.9885 19.439H32.088C32.088 19.439 32.7041 19.5495 32.7583 18.9201V18.0346C32.7583 18.0346 32.6981 17.4922 32.1357 17.4922C31.5738 17.4922 12.2302 17.4922 12.2302 17.4922C12.2302 17.4922 11.5122 17.3056 11.5122 16.7343V16.2335C11.5122 16.2335 11.6201 15.6388 12.2061 15.5924C12.7926 15.5455 30.4907 15.5924 30.4907 15.5924C30.4907 15.5924 31.1012 15.5684 31.1012 14.8569V14.187C31.1012 14.187 31.0832 13.6045 30.575 13.6045C30.0662 13.6045 15.9938 13.6045 15.9938 13.6045C15.9938 13.6045 15.1565 13.5459 15.1565 12.6253C15.1565 11.7042 16.0119 11.6167 16.0119 11.6167H32.8727C32.8727 11.6167 33.3031 11.5932 33.3031 10.9521C33.3031 10.3115 33.3031 10.2416 33.3031 10.2416C33.3031 10.2416 33.2916 9.71683 32.813 9.71683C32.3339 9.71683 10.3403 9.71683 10.3403 9.71683C10.3403 9.71683 9.41869 9.61177 9.46685 8.67893C9.51451 7.74707 10.3252 7.74023 10.3252 7.74023V7.74023ZM54.5046 18.601C54.4734 18.5428 54.49 12.3668 54.49 11.1769C54.49 11.067 54.476 10.7748 54.496 10.6858C54.5843 10.6673 55.4803 10.6726 55.518 10.6946C55.7543 10.6897 55.974 10.8647 56.0708 10.9702C56.1902 11.1002 56.3197 11.3059 56.3182 11.5546C56.3448 11.5981 56.3287 12.6497 56.3287 12.6937C56.5605 12.6937 57.1409 12.6834 57.3647 12.6927L57.4149 12.7044C57.4344 13.0856 57.4219 13.4374 57.2072 13.6661C56.874 14.0214 56.6372 13.9383 56.3217 13.9764V17.3559C56.3217 17.8118 56.2158 18.255 56.7185 18.3225C56.9102 18.3484 57.2067 18.3313 57.4088 18.3313C57.4279 18.4002 57.4164 19.5128 57.4164 19.6824C56.7677 19.7288 56.1135 19.7391 55.4648 19.6658C55.1532 19.6301 54.9245 19.5143 54.7694 19.3496C54.6395 19.2128 54.4895 18.8668 54.5046 18.601V18.601ZM47.2908 17.4414C47.4177 17.4268 49.1079 17.4312 49.1601 17.4458C49.1791 18.3195 50.0199 18.5306 50.9079 18.4695C51.3193 18.4417 51.7046 18.3239 51.7924 17.976C51.8943 17.5709 51.507 17.3794 51.1733 17.2543C50.4665 16.9894 49.6442 16.9547 48.9549 16.6894C48.2846 16.4309 47.7327 16.0253 47.5531 15.3163C47.4553 14.9293 47.4934 14.4846 47.6108 14.121C47.7729 13.6192 48.1316 13.2527 48.5716 13.0094C49.6648 12.4044 51.5426 12.4777 52.5058 13.1217C52.7727 13.3001 53.0045 13.5391 53.1746 13.8396C53.3181 14.0942 53.4871 14.573 53.4691 14.918C53.1465 14.918 52.2565 14.9449 51.9976 14.8765C51.7904 14.8218 51.6364 14.7128 51.5541 14.5691C51.4628 14.4074 51.4538 14.2891 51.209 14.1548C50.8247 13.9437 49.6923 13.8909 49.4124 14.3126C49.279 14.5139 49.3748 14.7421 49.4942 14.8677C49.7064 15.092 50.2327 15.2449 50.5527 15.3143C50.9842 15.4077 51.379 15.4829 51.7899 15.5997C52.1737 15.7092 52.5515 15.8489 52.8675 16.0282C53.6316 16.4612 53.8278 17.2914 53.6426 18.1177C53.3677 19.3447 52.1893 19.7987 50.8703 19.8813C49.9352 19.9394 48.9935 19.8441 48.3177 19.418C48.0062 19.2216 47.7563 18.9738 47.5707 18.6547C47.3675 18.3044 47.3053 17.8924 47.2908 17.4414V17.4414ZM60.0382 14.5447H58.2351C58.4333 13.219 59.4758 12.594 60.9708 12.594C61.9837 12.594 63.3137 12.7083 63.8561 13.5889C64.0081 13.8352 64.1275 14.1719 64.1275 14.5212V17.0412C64.1275 17.9169 63.8139 18.6914 63.1537 19.204C62.5873 19.6433 61.601 19.9096 60.6849 19.9096C60.2338 19.9096 59.9183 19.8861 59.4843 19.7488C59.2139 19.6628 58.8918 19.4884 58.7323 19.3428C58.5221 19.1522 58.3831 19.0129 58.2276 18.6943C57.8287 17.8778 57.9903 16.64 58.7067 16.0952C58.8336 15.9979 58.8853 15.952 59.0368 15.8719C60.2589 15.2259 61.5613 15.5284 62.1598 15.0246C62.3876 14.833 62.3936 14.4953 62.1217 14.2725C61.7856 13.9969 60.3161 13.8777 60.0798 14.489C60.0603 14.5393 60.0753 14.5296 60.0382 14.5447V14.5447ZM42.3672 15.1091L42.3591 15.6842C42.3591 16.082 42.3737 19.655 42.3541 19.7596C42.2854 19.7967 40.9203 19.7713 40.6077 19.7742C40.4582 19.7757 40.5099 19.7703 40.4959 19.7518C40.5109 19.6008 40.4989 17.4253 40.4989 17.2108C40.4989 16.5618 40.4643 15.3221 40.5736 14.7431C40.8511 13.2806 41.9041 12.593 43.5928 12.594C45.2955 12.596 46.3431 13.2527 46.611 14.7431C46.6847 15.1521 46.6782 15.5269 46.6782 15.9505V19.7615C45.7536 19.7615 44.843 19.9047 44.84 18.8585C44.8375 17.9618 44.84 17.0652 44.84 16.1685C44.84 15.3876 44.998 14.4626 44.0789 14.2178C43.7202 14.122 43.2145 14.1342 42.8924 14.2867C42.7209 14.3678 42.6165 14.4572 42.5257 14.5965C42.454 14.7074 42.3501 14.9473 42.3672 15.1091V15.1091ZM38.4976 10.6946C38.5388 10.6717 39.4649 10.6668 39.5627 10.6858L39.5567 19.7615C39.4664 19.7801 38.0346 19.763 37.7461 19.7674C37.6257 19.7689 37.6578 19.765 37.6498 19.7459V12.3399C37.6498 11.8048 37.554 11.1276 38.007 10.8363C38.1279 10.7591 38.323 10.6863 38.4976 10.6946V10.6946ZM62.355 16.2193C62.2321 16.2501 62.0545 16.3312 61.9175 16.3757C61.764 16.426 61.612 16.4734 61.4504 16.5149C60.9061 16.6537 60.0743 16.7099 59.8636 17.3193C59.7522 17.6432 59.8626 18.039 60.0427 18.2242C60.4109 18.6049 61.4489 18.473 61.8598 18.0884C61.9717 17.9838 62.0344 17.9227 62.1307 17.7703C62.207 17.6496 62.2672 17.502 62.3038 17.3456C62.369 17.0632 62.3786 16.5262 62.355 16.2193ZM14.9729 25.3346H15.9211C16.478 25.3346 16.934 25.7783 16.934 26.3207V26.3212C16.934 26.8636 16.478 27.3078 15.9211 27.3078H14.9729C14.4155 27.3078 13.96 26.8636 13.96 26.3212V26.3207C13.96 25.7783 14.4155 25.3346 14.9729 25.3346ZM1.03194 19.6003H4.33758C4.89445 19.6003 5.35049 20.044 5.35049 20.5864C5.35049 21.1293 4.89445 21.573 4.33758 21.573H1.03194C0.475066 21.573 0.0195312 21.1293 0.0195312 20.5864C0.0195312 20.044 0.475066 19.6003 1.03194 19.6003ZM8.24173 11.6279H12.1875C12.7449 11.6279 13.1999 12.0716 13.1999 12.614C13.1999 13.1574 12.7449 13.6011 12.1875 13.6011H8.24173C7.68485 13.6011 7.22881 13.1574 7.22881 12.614C7.22881 12.0716 7.68485 11.6279 8.24173 11.6279V11.6279Z" fill="#D02128"/>
<path fill-rule="evenodd" clip-rule="evenodd" d="M66.9253 12.056V19.9497H68.7881V14.554H69.2481C69.2481 14.554 70.0217 14.4123 70.0217 13.5171V13.1814H68.8006V12.6512C68.8006 12.6512 68.8187 12.2974 69.224 12.1972H70.0222V10.6951H68.462C68.462 10.6951 67.1556 10.7068 66.9253 12.056V12.056ZM75.7259 19.9907H73.827V15.2073C73.827 15.2073 73.8757 12.6859 76.5121 12.6859H77.5406C77.5406 12.6859 79.7781 12.6389 80.1047 14.8657V19.9668H79.004C79.004 19.9668 78.266 19.9907 78.266 19.225C78.266 18.4588 78.266 15.0773 78.266 15.0773C78.266 15.0773 78.1451 14.2881 77.3469 14.2881H76.4519C76.4519 14.2881 75.7019 14.359 75.7019 15.1247L75.7259 19.9907ZM70.8871 12.7567V19.9614H72.7865V13.4047C72.7865 13.4047 72.7931 12.9263 72.2116 12.7743L70.8871 12.7567V12.7567ZM70.8871 10.6594V12.0912H72.7865V11.3079C72.7865 11.3079 72.7931 10.829 72.2116 10.6775L70.8871 10.6594V10.6594Z" fill="#101940"/>
</g>
<defs>
<clipPath id="clip0_102_3024">
<rect width="80" height="40" fill="white"/>
</clipPath>
</defs>
</svg>
