<svg width="32" height="32" viewBox="0 0 32 32" fill="none" xmlns="http://www.w3.org/2000/svg">
<path d="M24.5675 11.085H7.4325L8.5525 4.115C8.5525 3.64 8.9375 3.2525 9.415 3.2525H22.6575C23.1325 3.2525 23.52 3.6375 23.52 4.115L24.5675 11.085Z" fill="#757575"/>
<path d="M23.235 10.475H8.76501L9.71001 4.58749C9.71001 4.18499 10.035 3.85999 10.4375 3.85999H21.6225C22.025 3.85999 22.35 4.18499 22.35 4.58749L23.235 10.475Z" fill="#424242"/>
<path d="M23.635 7.47751H8.39251C7.77751 7.47751 7.25251 7.92001 7.14751 8.52501L6.70001 11.095H25.295L24.8775 8.53751C24.7825 7.92501 24.2525 7.47751 23.635 7.47751Z" fill="#424242"/>
<path d="M9.95751 9.68501H22.63C22.63 9.68501 23.3025 5.185 22.185 1.0675H9.51251C10.3425 4.935 9.95751 9.68501 9.95751 9.68501Z" fill="url(#paint0_linear_55_8281)"/>
<path d="M9.7525 10.89L22.515 10.73L22.7 9.22751H10.0425L9.7525 10.89Z" fill="#BDBDBD"/>
<path d="M29.79 22.695H3.72001C2.32001 22.695 2.15251 20.14 2.22251 18.5225C2.24001 18.1425 2.30501 17.77 2.41501 17.405L4.14251 11.5925C4.14251 11.5925 4.62501 9.8775 6.15501 9.8775H25.5225C26.705 9.8775 27.1825 11.205 27.1825 11.205L29.4325 16.97C29.6425 17.51 29.755 18.085 29.7575 18.6675L29.79 22.695Z" fill="#CFD8DC"/>
<path d="M27.7225 27.7925H4.27753C3.14003 27.7925 2.21753 26.87 2.21753 25.7325V19.0125C2.21753 18.1375 2.92753 17.4275 3.80253 17.4275H28.1975C29.0725 17.4275 29.7825 18.1375 29.7825 19.0125V25.7325C29.7825 26.87 28.86 27.7925 27.7225 27.7925Z" fill="#90A4AE"/>
<path d="M23.025 9.8775H9.09752L6.89752 17.4275V19.2425C6.89752 20.135 7.62252 20.86 8.51502 20.86H23.49C24.3825 20.86 25.1075 20.135 25.1075 19.2425V17.4275L23.025 9.8775Z" fill="#607D8B"/>
<path d="M7.88 16.2325L9.5125 9.8775H22.62L24.1675 16.2525C24.375 17.1425 23.77 17.4275 22.945 17.4275H9.0975C8.265 17.4275 7.66 17.13 7.88 16.2325Z" fill="#90A4AE"/>
<path d="M27.4825 20.8225C27.9588 20.8225 28.345 20.4363 28.345 19.96C28.345 19.4837 27.9588 19.0975 27.4825 19.0975C27.0061 19.0975 26.62 19.4837 26.62 19.96C26.62 20.4363 27.0061 20.8225 27.4825 20.8225Z" fill="#424242"/>
<path d="M27.4825 20.675C27.9588 20.675 28.345 20.2889 28.345 19.8125C28.345 19.3362 27.9588 18.95 27.4825 18.95C27.0061 18.95 26.62 19.3362 26.62 19.8125C26.62 20.2889 27.0061 20.675 27.4825 20.675Z" fill="#99D45B"/>
<path d="M26.56 29.6475L24.7175 23.575H7.28249L5.43999 29.6475C5.26249 30.2975 5.88999 30.93 6.69249 30.93H25.31C26.11 30.9325 26.74 30.3 26.56 29.6475Z" fill="#616161"/>
<path d="M24.125 25.2375C24.0325 24.7875 24.3975 24.65 24.52 24.6125C24.8075 24.5225 25.045 24.665 25.045 24.665L24.735 23.575H7.26502L6.95502 24.665C6.95502 24.665 7.19252 24.5225 7.48002 24.6125C7.60252 24.65 7.96752 24.7875 7.87502 25.2375C7.79502 25.63 7.47502 27.1575 7.47502 27.1575C7.33752 27.785 7.25502 28.425 7.14252 29.0575C7.14252 29.4175 7.47252 29.7075 7.88002 29.7075H24.115C24.5225 29.7075 24.8525 29.4175 24.8525 29.0575C24.7425 28.425 24.6575 27.785 24.52 27.1575C24.5225 27.1575 24.205 25.63 24.125 25.2375Z" fill="#212121"/>
<path d="M13.85 26.5225C13.85 26.5225 8.83753 28.4275 14.9225 28.4275C21.0075 28.4275 23.61 26.76 23.61 26.76L22.2025 25.395L15.185 26.0475L13.85 26.5225Z" fill="#BDBDBD"/>
<path d="M23.265 24.3975H9.26751L8.07751 28.36C8.07751 28.36 12.05 28.425 14.925 28.425C17.8 28.425 21.4425 26.09 21.4425 26.09C21.4425 26.09 23.82 27.51 23.6875 26.455C23.5325 25.25 23.265 24.3975 23.265 24.3975Z" fill="white"/>
<path d="M23.3725 24.785L23.185 24.035L9.34753 24.0875L9.15503 24.785H23.3725Z" fill="#BDBDBD"/>
<path d="M20.4225 26.68H9.60997L9.53247 26.9375H19.9125L20.4225 26.68ZM9.93747 25.5875L9.85997 25.845H22.3975C22.385 25.7575 22.3725 25.67 22.36 25.5875H9.93747Z" fill="#9E9E9E"/>
<path d="M22.145 24.5325H10.255L10.1775 24.79H22.2075C22.185 24.6925 22.165 24.6075 22.145 24.5325Z" fill="#757575"/>
<path d="M16.74 21.375H15.26C14.92 21.375 14.6425 21.1 14.6425 20.7575V20.6575C14.6425 20.3175 14.9175 20.04 15.26 20.04H16.74C17.08 20.04 17.3575 20.315 17.3575 20.6575V20.7575C17.3575 21.1 17.08 21.375 16.74 21.375Z" fill="#607D8B"/>
<path d="M23.4675 22.61H8.53252C7.79752 22.61 7.20251 23.205 7.20251 23.94H24.795C24.7975 23.205 24.2 22.61 23.4675 22.61Z" fill="#212121"/>
<defs>
<linearGradient id="paint0_linear_55_8281" x1="16.171" y1="7.70675" x2="16.171" y2="0.534255" gradientUnits="userSpaceOnUse">
<stop offset="0.566" stop-color="#EEEEEE"/>
<stop offset="1" stop-color="#E0E0E0"/>
</linearGradient>
</defs>
</svg>
