<svg width="60" height="60" viewBox="0 0 60 60" fill="none" xmlns="http://www.w3.org/2000/svg">
<path d="M44.4727 19.6289C44.4727 11.6016 37.9688 5.09766 29.9414 5.09766C21.9141 5.09766 15.4102 11.6016 15.4102 19.6289C15.4102 24.4805 17.7891 28.7812 21.4453 31.418C21.4219 31.4297 21.4043 31.4355 21.3926 31.4414C18.7734 32.5488 16.4238 34.1367 14.4023 36.1641C12.3809 38.1855 10.7988 40.541 9.6914 43.166C8.60742 45.7324 8.02734 48.457 7.96875 51.2578C7.96289 51.5215 8.17383 51.7383 8.4375 51.7383H11.9473C12.1992 51.7383 12.4102 51.5332 12.416 51.2812C12.5332 46.7578 14.3437 42.5215 17.5488 39.3105C20.8594 35.9883 25.2539 34.1602 29.9414 34.1602C37.9688 34.1602 44.4727 27.6562 44.4727 19.6289ZM29.9414 29.707C24.375 29.707 19.8633 25.1953 19.8633 19.6289C19.8633 14.0625 24.375 9.55078 29.9414 9.55078C35.5078 9.55078 40.0195 14.0625 40.0195 19.6289C40.0195 25.1953 35.5078 29.707 29.9414 29.707ZM36.0938 42.6562H51.5625C51.8203 42.6562 52.0312 42.4453 52.0312 42.1875V38.9062C52.0312 38.6484 51.8203 38.4375 51.5625 38.4375H41.2207L43.9863 34.916C44.0508 34.834 44.0859 34.7285 44.0859 34.6289C44.0859 34.3711 43.875 34.1602 43.6172 34.1602H39.3633C39.0762 34.1602 38.8066 34.2949 38.625 34.5176L34.6113 39.6211C34.3535 39.9492 34.2129 40.3594 34.2129 40.7812C34.2188 41.8184 35.0566 42.6562 36.0938 42.6562ZM50.1562 46.4062H34.6875C34.4297 46.4062 34.2188 46.6172 34.2188 46.875V50.1562C34.2188 50.4141 34.4297 50.625 34.6875 50.625H45.0293L42.2637 54.1465C42.1992 54.2285 42.1641 54.334 42.1641 54.4336C42.1641 54.6914 42.375 54.9023 42.6328 54.9023H46.8867C47.1738 54.9023 47.4434 54.7676 47.625 54.5449L51.6387 49.4414C51.8965 49.1133 52.0371 48.7031 52.0371 48.2812C52.0312 47.2441 51.1934 46.4062 50.1562 46.4062Z" fill="#003F66"/>
</svg>
