<svg width="60" height="60" viewBox="0 0 60 60" fill="none" xmlns="http://www.w3.org/2000/svg">
<path d="M30 26.6333C34.3815 26.6333 37.9333 23.1262 37.9333 18.8C37.9333 14.4738 34.3815 10.9667 30 10.9667C25.6185 10.9667 22.0667 14.4738 22.0667 18.8C22.0667 23.1262 25.6185 26.6333 30 26.6333Z" fill="#003F66"/>
<path d="M17.9667 19.5833H18.7667V18.8667C18.7715 16.7827 19.3595 14.7416 20.464 12.9744C21.5685 11.2071 23.1455 9.78425 25.0167 8.86667C24.4627 7.59094 23.5736 6.48906 22.4437 5.67806C21.3139 4.86707 19.9854 4.37724 18.5995 4.2606C17.2136 4.14396 15.822 4.40487 14.5725 5.01562C13.3229 5.62636 12.2621 6.56414 11.5028 7.72934C10.7434 8.89455 10.3138 10.2437 10.2596 11.6334C10.2054 13.0232 10.5286 14.4016 11.195 15.6225C11.8613 16.8433 12.8458 17.8608 14.044 18.567C15.2422 19.2732 16.6092 19.6417 18 19.6333L17.9667 19.5833ZM41.2667 18.8V19.5167H42.0667C43.4389 19.5029 44.7821 19.1194 45.9548 18.4067C47.1275 17.6939 48.0864 16.6781 48.7304 15.4663C49.3745 14.2545 49.68 12.8915 49.6148 11.5208C49.5495 10.15 49.1159 8.82215 48.3596 7.67702C47.6034 6.53189 46.5524 5.61183 45.3173 5.01366C44.0821 4.4155 42.7086 4.16137 41.3413 4.27801C39.9739 4.39465 38.6633 4.87776 37.5473 5.67648C36.4314 6.4752 35.5514 7.55999 35 8.81667C36.8717 9.73066 38.4505 11.1499 39.5579 12.9141C40.6653 14.6783 41.2572 16.7171 41.2667 18.8ZM37.15 27.4167C40.4638 28.0726 43.6679 29.1948 46.6667 30.75C47.0892 30.9821 47.4718 31.2803 47.8 31.6333H56.6667V25.9333C56.6683 25.7147 56.6102 25.4998 56.4985 25.3118C56.3869 25.1238 56.2261 24.9699 56.0333 24.8667C51.7136 22.6072 46.9083 21.4345 42.0333 21.45H40.9333C40.3557 23.7979 39.0273 25.8929 37.15 27.4167ZM10.8833 34.8667C10.8803 34.0273 11.107 33.2031 11.5388 32.4833C11.9707 31.7635 12.5913 31.1756 13.3333 30.7833C16.3321 29.2282 19.5362 28.1059 22.85 27.45C20.9818 25.9392 19.6542 23.863 19.0667 21.5333H17.9667C13.0917 21.5178 8.28643 22.6905 3.96668 24.95C3.77396 25.0532 3.61311 25.2072 3.50149 25.3951C3.38987 25.5831 3.33173 25.798 3.33335 26.0167V36.6667H10.8833V34.8667ZM35.7667 44.4833H45.7V46.8167H35.7667V44.4833Z" fill="#003F66"/>
<path d="M54.6833 35.4333H43.2333V33.7667C43.2333 33.3246 43.0577 32.9007 42.7452 32.5882C42.4326 32.2756 42.0087 32.1 41.5667 32.1C41.1246 32.1 40.7007 32.2756 40.3882 32.5882C40.0756 32.9007 39.9 33.3246 39.9 33.7667V35.4333H36.6667V30.7167C34.4739 30.2562 32.2406 30.0161 30 30C24.7396 29.9781 19.5544 31.2486 14.9 33.7C14.6927 33.8075 14.5192 33.9703 14.3986 34.1703C14.278 34.3703 14.215 34.5998 14.2167 34.8333V44.1833H26.0667V54.3333C26.0667 54.7754 26.2423 55.1993 26.5548 55.5118C26.8674 55.8244 27.2913 56 27.7333 56H54.6833C55.1254 56 55.5493 55.8244 55.8619 55.5118C56.1744 55.1993 56.35 54.7754 56.35 54.3333V37.1C56.35 36.658 56.1744 36.234 55.8619 35.9215C55.5493 35.6089 55.1254 35.4333 54.6833 35.4333ZM53.0167 52.7H29.4V38.7667H39.9V40.2833C39.9 40.7254 40.0756 41.1493 40.3882 41.4618C40.7007 41.7744 41.1246 41.95 41.5667 41.95C42.0087 41.95 42.4326 41.7744 42.7452 41.4618C43.0577 41.1493 43.2333 40.7254 43.2333 40.2833V38.7667H53.0167V52.7Z" fill="#003F66"/>
</svg>
