<svg width="60" height="48" viewBox="0 0 60 48" fill="none" xmlns="http://www.w3.org/2000/svg">
<g clip-path="url(#clip0_1_706)">
<path d="M31.5 0C33.9844 0 36 2.01469 36 4.5V34.4812C32.4188 36.4875 30 40.3125 30 44.7094C30 45.9188 30.3375 47.0438 30.9281 48H22.5V40.5C22.5 38.0156 20.4844 36 18 36C15.5156 36 13.5 38.0156 13.5 40.5V48H4.5C2.01469 48 0 45.9844 0 43.5V4.5C0 2.01469 2.01469 0 4.5 0H31.5ZM6 25.5C6 26.325 6.67125 27 7.5 27H10.5C11.325 27 12 26.325 12 25.5V22.5C12 21.675 11.325 21 10.5 21H7.5C6.67125 21 6 21.675 6 22.5V25.5ZM16.5 21C15.675 21 15 21.675 15 22.5V25.5C15 26.325 15.675 27 16.5 27H19.5C20.325 27 21 26.325 21 25.5V22.5C21 21.675 20.325 21 19.5 21H16.5ZM24 25.5C24 26.325 24.675 27 25.5 27H28.5C29.325 27 30 26.325 30 25.5V22.5C30 21.675 29.325 21 28.5 21H25.5C24.675 21 24 21.675 24 22.5V25.5ZM7.5 9C6.67125 9 6 9.675 6 10.5V13.5C6 14.325 6.67125 15 7.5 15H10.5C11.325 15 12 14.325 12 13.5V10.5C12 9.675 11.325 9 10.5 9H7.5ZM15 13.5C15 14.325 15.675 15 16.5 15H19.5C20.325 15 21 14.325 21 13.5V10.5C21 9.675 20.325 9 19.5 9H16.5C15.675 9 15 9.675 15 10.5V13.5ZM25.5 9C24.675 9 24 9.675 24 10.5V13.5C24 14.325 24.675 15 25.5 15H28.5C29.325 15 30 14.325 30 13.5V10.5C30 9.675 29.325 9 28.5 9H25.5ZM54 25.5C54 29.6437 50.6437 33 46.5 33C42.3563 33 39 29.6437 39 25.5C39 21.3563 42.3563 18 46.5 18C50.6437 18 54 21.3563 54 25.5ZM33 44.7281C33 39.9094 36.9094 36 41.7281 36H51.2719C56.0906 36 60 39.9094 60 44.7281C60 46.5375 58.5375 48 56.7281 48H36.2719C34.4625 48 33 46.5375 33 44.7281Z" fill="#003F66"/>
</g>
<defs>
<clipPath id="clip0_1_706">
<rect width="60" height="48" fill="white"/>
</clipPath>
</defs>
</svg>
