<svg width="60" height="60" viewBox="0 0 60 60" fill="none" xmlns="http://www.w3.org/2000/svg">
<path d="M39.375 37.5C38.8777 37.5 38.4008 37.6975 38.0492 38.0492C37.6975 38.4008 37.5 38.8777 37.5 39.375C37.5 39.8723 37.6975 40.3492 38.0492 40.7008C38.4008 41.0525 38.8777 41.25 39.375 41.25H46.875C47.3723 41.25 47.8492 41.0525 48.2008 40.7008C48.5525 40.3492 48.75 39.8723 48.75 39.375C48.75 38.8777 48.5525 38.4008 48.2008 38.0492C47.8492 37.6975 47.3723 37.5 46.875 37.5H39.375ZM3.75 20.625C3.75 18.1386 4.73772 15.754 6.49587 13.9959C8.25403 12.2377 10.6386 11.25 13.125 11.25H46.875C49.3614 11.25 51.746 12.2377 53.5041 13.9959C55.2623 15.754 56.25 18.1386 56.25 20.625V39.375C56.25 41.8614 55.2623 44.246 53.5041 46.0041C51.746 47.7623 49.3614 48.75 46.875 48.75H13.125C10.6386 48.75 8.25403 47.7623 6.49587 46.0041C4.73772 44.246 3.75 41.8614 3.75 39.375V20.625ZM52.5 22.5V20.625C52.5 19.1332 51.9074 17.7024 50.8525 16.6475C49.7976 15.5926 48.3668 15 46.875 15H13.125C11.6332 15 10.2024 15.5926 9.14752 16.6475C8.09263 17.7024 7.5 19.1332 7.5 20.625V22.5H52.5ZM7.5 26.25V39.375C7.5 40.8668 8.09263 42.2976 9.14752 43.3525C10.2024 44.4074 11.6332 45 13.125 45H46.875C48.3668 45 49.7976 44.4074 50.8525 43.3525C51.9074 42.2976 52.5 40.8668 52.5 39.375V26.25H7.5Z" fill="#003F66"/>
</svg>
