<svg width="60" height="60" viewBox="0 0 60 60" fill="none" xmlns="http://www.w3.org/2000/svg">
<path d="M48 25.215V15C48 14.2044 47.6839 13.4413 47.1213 12.8787C46.5587 12.3161 45.7957 12 45 12H15C14.2044 12 13.4413 12.3161 12.8787 12.8787C12.3161 13.4413 12 14.2044 12 15V45C12 45.7957 12.3161 46.5587 12.8787 47.1213C13.4413 47.6839 14.2044 48 15 48H31.002C31.389 49.086 31.869 50.085 32.415 51H15C13.4087 51 11.8826 50.3679 10.7574 49.2426C9.63214 48.1174 9 46.5913 9 45V15C9 13.4087 9.63214 11.8826 10.7574 10.7574C11.8826 9.63214 13.4087 9 15 9H45C46.5913 9 48.1174 9.63214 49.2426 10.7574C50.3679 11.8826 51 13.4087 51 15V27.804C50.0871 27.1518 49.2337 26.4199 48.45 25.617C48.3087 25.4736 48.1584 25.3393 48 25.215ZM20.25 24C20.8467 24 21.419 23.7629 21.841 23.341C22.2629 22.919 22.5 22.3467 22.5 21.75C22.5 21.1533 22.2629 20.581 21.841 20.159C21.419 19.7371 20.8467 19.5 20.25 19.5C19.6533 19.5 19.081 19.7371 18.659 20.159C18.2371 20.581 18 21.1533 18 21.75C18 22.3467 18.2371 22.919 18.659 23.341C19.081 23.7629 19.6533 24 20.25 24ZM22.5 30.75C22.5 31.3467 22.2629 31.919 21.841 32.341C21.419 32.7629 20.8467 33 20.25 33C19.6533 33 19.081 32.7629 18.659 32.341C18.2371 31.919 18 31.3467 18 30.75C18 30.1533 18.2371 29.581 18.659 29.159C19.081 28.7371 19.6533 28.5 20.25 28.5C20.8467 28.5 21.419 28.7371 21.841 29.159C22.2629 29.581 22.5 30.1533 22.5 30.75ZM22.5 39.75C22.5 40.3467 22.2629 40.919 21.841 41.341C21.419 41.7629 20.8467 42 20.25 42C19.6533 42 19.081 41.7629 18.659 41.341C18.2371 40.919 18 40.3467 18 39.75C18 39.1533 18.2371 38.581 18.659 38.159C19.081 37.7371 19.6533 37.5 20.25 37.5C20.8467 37.5 21.419 37.7371 21.841 38.159C22.2629 38.581 22.5 39.1533 22.5 39.75ZM27 22.5C27 22.1022 27.158 21.7206 27.4393 21.4393C27.7206 21.158 28.1022 21 28.5 21H40.5C40.8978 21 41.2794 21.158 41.5607 21.4393C41.842 21.7206 42 22.1022 42 22.5C42 22.8978 41.842 23.2794 41.5607 23.5607C41.2794 23.842 40.8978 24 40.5 24H28.5C28.1022 24 27.7206 23.842 27.4393 23.5607C27.158 23.2794 27 22.8978 27 22.5ZM27 31.5C27 31.1022 27.158 30.7206 27.4393 30.4393C27.7206 30.158 28.1022 30 28.5 30H33.669C32.199 30.345 30.804 31.416 30.249 33H28.5C28.1022 33 27.7206 32.842 27.4393 32.5607C27.158 32.2794 27 31.8978 27 31.5ZM28.5 42H30V39H28.5C28.1022 39 27.7206 39.158 27.4393 39.4393C27.158 39.7206 27 40.1022 27 40.5C27 40.8978 27.158 41.2794 27.4393 41.5607C27.7206 41.842 28.1022 42 28.5 42ZM46.305 27.72C48.045 29.49 51.39 32.316 55.503 32.895C56.325 33.009 57 33.672 57 34.5V42C57 52.404 47.454 56.181 45.39 56.877C45.1373 56.9639 44.8627 56.9639 44.61 56.877C42.546 56.181 33 52.407 33 42V34.5C33 33.672 33.675 33.009 34.497 32.895C38.607 32.316 41.952 29.493 43.695 27.717C44.0444 27.3772 44.5126 27.1871 45 27.1871C45.4874 27.1871 45.9556 27.3772 46.305 27.717V27.72Z" fill="#003F66"/>
</svg>
