<svg width="60" height="60" viewBox="0 0 60 60" fill="none" xmlns="http://www.w3.org/2000/svg">
<path d="M27 6C23.8174 6 20.7652 7.26428 18.5147 9.51472C16.2643 11.7652 15 14.8174 15 18C15 21.1826 16.2643 24.2348 18.5147 26.4853C20.7652 28.7357 23.8174 30 27 30C30.1826 30 33.2348 28.7357 35.4853 26.4853C37.7357 24.2348 39 21.1826 39 18C39 14.8174 37.7357 11.7652 35.4853 9.51472C33.2348 7.26428 30.1826 6 27 6ZM12.027 33C11.2369 32.9968 10.454 33.1497 9.72307 33.4498C8.99218 33.7498 8.32771 34.1912 7.76778 34.7487C7.20784 35.3061 6.76345 35.9686 6.4601 36.6981C6.15674 37.4277 6.00039 38.2099 6 39C6 44.073 8.499 47.898 12.405 50.391C16.251 52.842 21.435 54 27 54C28.23 54 29.448 53.943 30.63 53.829C28.2748 50.9022 26.9936 47.2567 27 43.5C27 39.51 28.416 35.85 30.771 33H12.03H12.027ZM57 43.5C57 47.0804 55.5777 50.5142 53.0459 53.0459C50.5142 55.5777 47.0804 57 43.5 57C39.9196 57 36.4858 55.5777 33.9541 53.0459C31.4223 50.5142 30 47.0804 30 43.5C30 39.9196 31.4223 36.4858 33.9541 33.9541C36.4858 31.4223 39.9196 30 43.5 30C47.0804 30 50.5142 31.4223 53.0459 33.9541C55.5777 36.4858 57 39.9196 57 43.5ZM44.928 35.58C44.8413 35.2678 44.6548 34.9927 44.3969 34.7966C44.139 34.6006 43.824 34.4944 43.5 34.4944C43.176 34.4944 42.861 34.6006 42.6031 34.7966C42.3452 34.9927 42.1587 35.2678 42.072 35.58L40.641 40.176H36C34.548 40.176 33.942 42.117 35.118 43.008L38.868 45.849L37.437 50.445C36.987 51.885 38.571 53.085 39.747 52.194L43.497 49.353L47.247 52.194C48.423 53.085 50.007 51.885 49.557 50.445L48.126 45.849L51.876 43.008C53.052 42.117 52.446 40.176 50.994 40.176H46.359L44.925 35.583L44.928 35.58Z" fill="#003F66"/>
</svg>
