<svg width="60" height="60" viewBox="0 0 60 60" fill="none" xmlns="http://www.w3.org/2000/svg">
<path d="M43.062 21.312C43.2015 21.1727 43.3121 21.0074 43.3877 20.8253C43.4632 20.6433 43.5022 20.4482 43.5023 20.2511C43.5025 20.054 43.4638 19.8588 43.3885 19.6766C43.3132 19.4945 43.2028 19.329 43.0635 19.1895C42.9242 19.05 42.7589 18.9394 42.5768 18.8638C42.3948 18.7883 42.1997 18.7493 42.0026 18.7492C41.8055 18.749 41.6103 18.7877 41.4281 18.863C41.246 18.9383 41.0805 19.0487 40.941 19.188L36.702 23.424L35.511 22.338C35.2151 22.0851 34.8324 21.9571 34.4439 21.9811C34.0553 22.0051 33.6913 22.1792 33.4288 22.4667C33.1663 22.7541 33.0258 23.1324 33.037 23.5215C33.0483 23.9107 33.2103 24.2802 33.489 24.552L35.739 26.607C36.0241 26.8666 36.3982 27.0064 36.7836 26.9974C37.1691 26.9885 37.5362 26.8315 37.809 26.559L43.059 21.309L43.062 21.312ZM43.062 34.188C43.2017 34.3273 43.3125 34.4929 43.3881 34.6751C43.4638 34.8573 43.5027 35.0527 43.5027 35.25C43.5027 35.4473 43.4638 35.6427 43.3881 35.8249C43.3125 36.0071 43.2017 36.1727 43.062 36.312L37.812 41.562C37.5387 41.835 37.1707 41.992 36.7845 42.0004C36.3984 42.0087 36.0239 41.8678 35.739 41.607L33.489 39.552C33.2103 39.2802 33.0483 38.9107 33.037 38.5215C33.0258 38.1324 33.1663 37.7541 33.4288 37.4667C33.6913 37.1792 34.0553 37.0051 34.4439 36.9811C34.8324 36.9571 35.2151 37.0851 35.511 37.338L36.702 38.427L40.938 34.188C41.0773 34.0483 41.2429 33.9375 41.4251 33.8619C41.6073 33.7862 41.8027 33.7473 42 33.7473C42.1973 33.7473 42.3927 33.7862 42.5749 33.8619C42.7571 33.9375 42.9227 34.0483 43.062 34.188ZM19.5 36C19.1022 36 18.7206 36.158 18.4393 36.4393C18.158 36.7206 18 37.1022 18 37.5C18 37.8978 18.158 38.2794 18.4393 38.5607C18.7206 38.842 19.1022 39 19.5 39H27C27.3978 39 27.7794 38.842 28.0607 38.5607C28.342 38.2794 28.5 37.8978 28.5 37.5C28.5 37.1022 28.342 36.7206 28.0607 36.4393C27.7794 36.158 27.3978 36 27 36H19.5ZM18 22.5C18 22.1022 18.158 21.7206 18.4393 21.4393C18.7206 21.158 19.1022 21 19.5 21H27C27.3978 21 27.7794 21.158 28.0607 21.4393C28.342 21.7206 28.5 22.1022 28.5 22.5C28.5 22.8978 28.342 23.2794 28.0607 23.5607C27.7794 23.842 27.3978 24 27 24H19.5C19.1022 24 18.7206 23.842 18.4393 23.5607C18.158 23.2794 18 22.8978 18 22.5ZM18 9C15.6131 9 13.3239 9.94821 11.636 11.636C9.94821 13.3239 9 15.6131 9 18V42C9 44.3869 9.94821 46.6761 11.636 48.364C13.3239 50.0518 15.6131 51 18 51H42C44.3869 51 46.6761 50.0518 48.364 48.364C50.0518 46.6761 51 44.3869 51 42V18C51 15.6131 50.0518 13.3239 48.364 11.636C46.6761 9.94821 44.3869 9 42 9H18ZM12 18C12 16.4087 12.6321 14.8826 13.7574 13.7574C14.8826 12.6321 16.4087 12 18 12H42C43.5913 12 45.1174 12.6321 46.2426 13.7574C47.3679 14.8826 48 16.4087 48 18V42C48 43.5913 47.3679 45.1174 46.2426 46.2426C45.1174 47.3679 43.5913 48 42 48H18C16.4087 48 14.8826 47.3679 13.7574 46.2426C12.6321 45.1174 12 43.5913 12 42V18Z" fill="#003F66"/>
</svg>
