<svg width="60" height="60" viewBox="0 0 60 60" fill="none" xmlns="http://www.w3.org/2000/svg">
<path d="M48 27.621V15C48 14.2044 47.6839 13.4413 47.1213 12.8787C46.5587 12.3161 45.7957 12 45 12H15C14.2044 12 13.4413 12.3161 12.8787 12.8787C12.3161 13.4413 12 14.2044 12 15V45C12 45.7957 12.3161 46.5587 12.8787 47.1213C13.4413 47.6839 14.2044 48 15 48H27.621C27.918 49.047 28.311 50.049 28.8 51H15C13.4087 51 11.8826 50.3679 10.7574 49.2426C9.63214 48.1174 9 46.5913 9 45V15C9 13.4087 9.63214 11.8826 10.7574 10.7574C11.8826 9.63214 13.4087 9 15 9H45C46.5913 9 48.1174 9.63214 49.2426 10.7574C50.3679 11.8826 51 13.4087 51 15V28.8C50.0412 28.3094 49.0363 27.9145 48 27.621ZM20.25 24C20.8467 24 21.419 23.7629 21.841 23.341C22.2629 22.919 22.5 22.3467 22.5 21.75C22.5 21.1533 22.2629 20.581 21.841 20.159C21.419 19.7371 20.8467 19.5 20.25 19.5C19.6533 19.5 19.081 19.7371 18.659 20.159C18.2371 20.581 18 21.1533 18 21.75C18 22.3467 18.2371 22.919 18.659 23.341C19.081 23.7629 19.6533 24 20.25 24ZM22.5 30.75C22.5 31.3467 22.2629 31.919 21.841 32.341C21.419 32.7629 20.8467 33 20.25 33C19.6533 33 19.081 32.7629 18.659 32.341C18.2371 31.919 18 31.3467 18 30.75C18 30.1533 18.2371 29.581 18.659 29.159C19.081 28.7371 19.6533 28.5 20.25 28.5C20.8467 28.5 21.419 28.7371 21.841 29.159C22.2629 29.581 22.5 30.1533 22.5 30.75ZM22.5 39.75C22.5 40.3467 22.2629 40.919 21.841 41.341C21.419 41.7629 20.8467 42 20.25 42C19.6533 42 19.081 41.7629 18.659 41.341C18.2371 40.919 18 40.3467 18 39.75C18 39.1533 18.2371 38.581 18.659 38.159C19.081 37.7371 19.6533 37.5 20.25 37.5C20.8467 37.5 21.419 37.7371 21.841 38.159C22.2629 38.581 22.5 39.1533 22.5 39.75ZM27 22.5C27 22.1022 27.158 21.7206 27.4393 21.4393C27.7206 21.158 28.1022 21 28.5 21H40.5C40.8978 21 41.2794 21.158 41.5607 21.4393C41.842 21.7206 42 22.1022 42 22.5C42 22.8978 41.842 23.2794 41.5607 23.5607C41.2794 23.842 40.8978 24 40.5 24H28.5C28.1022 24 27.7206 23.842 27.4393 23.5607C27.158 23.2794 27 22.8978 27 22.5ZM27 31.5C27 31.1022 27.158 30.7206 27.4393 30.4393C27.7206 30.158 28.1022 30 28.5 30H34.011C32.802 30.852 31.71 31.86 30.771 33H28.5C28.1022 33 27.7206 32.842 27.4393 32.5607C27.158 32.2794 27 31.8978 27 31.5ZM57 43.5C57 47.0804 55.5777 50.5142 53.0459 53.0459C50.5142 55.5777 47.0804 57 43.5 57C39.9196 57 36.4858 55.5777 33.9541 53.0459C31.4223 50.5142 30 47.0804 30 43.5C30 39.9196 31.4223 36.4858 33.9541 33.9541C36.4858 31.4223 39.9196 30 43.5 30C47.0804 30 50.5142 31.4223 53.0459 33.9541C55.5777 36.4858 57 39.9196 57 43.5ZM43.5 36C43.1022 36 42.7206 36.158 42.4393 36.4393C42.158 36.7206 42 37.1022 42 37.5V43.5C42 43.8978 42.158 44.2794 42.4393 44.5607C42.7206 44.842 43.1022 45 43.5 45H48C48.3978 45 48.7794 44.842 49.0607 44.5607C49.342 44.2794 49.5 43.8978 49.5 43.5C49.5 43.1022 49.342 42.7206 49.0607 42.4393C48.7794 42.158 48.3978 42 48 42H45V37.5C45 37.1022 44.842 36.7206 44.5607 36.4393C44.2794 36.158 43.8978 36 43.5 36Z" fill="#003F66"/>
</svg>
