<svg width="59" height="75" viewBox="0 0 59 75" fill="none" xmlns="http://www.w3.org/2000/svg">
<path d="M11 13C9.4087 13 7.88258 13.6321 6.75736 14.7574C5.63214 15.8826 5 17.4087 5 19V49C5 50.5913 5.63214 52.1174 6.75736 53.2426C7.88258 54.3679 9.4087 55 11 55H23.66L24.296 52.465C24.335 52.309 24.377 52.153 24.425 52H11C10.2044 52 9.44129 51.6839 8.87868 51.1213C8.31607 50.5587 8 49.7957 8 49V19C8 18.2044 8.31607 17.4413 8.87868 16.8787C9.44129 16.3161 10.2044 16 11 16H41C41.7957 16 42.5587 16.3161 43.1213 16.8787C43.6839 17.4413 44 18.2044 44 19V31.696C44.96 31.285 45.977 31.057 47 31.009V19C47 17.4087 46.3679 15.8826 45.2426 14.7574C44.1174 13.6321 42.5913 13 41 13H11ZM24.5 46H28.829L31.829 43H24.5C24.1022 43 23.7206 43.158 23.4393 43.4393C23.158 43.7206 23 44.1022 23 44.5C23 44.8978 23.158 45.2794 23.4393 45.5607C23.7206 45.842 24.1022 46 24.5 46ZM18.5 25.75C18.5 26.3467 18.2629 26.919 17.841 27.341C17.419 27.7629 16.8467 28 16.25 28C15.6533 28 15.081 27.7629 14.659 27.341C14.2371 26.919 14 26.3467 14 25.75C14 25.1533 14.2371 24.581 14.659 24.159C15.081 23.7371 15.6533 23.5 16.25 23.5C16.8467 23.5 17.419 23.7371 17.841 24.159C18.2629 24.581 18.5 25.1533 18.5 25.75ZM16.25 37C16.8467 37 17.419 36.7629 17.841 36.341C18.2629 35.919 18.5 35.3467 18.5 34.75C18.5 34.1533 18.2629 33.581 17.841 33.159C17.419 32.7371 16.8467 32.5 16.25 32.5C15.6533 32.5 15.081 32.7371 14.659 33.159C14.2371 33.581 14 34.1533 14 34.75C14 35.3467 14.2371 35.919 14.659 36.341C15.081 36.7629 15.6533 37 16.25 37ZM16.25 46C16.8467 46 17.419 45.7629 17.841 45.341C18.2629 44.919 18.5 44.3467 18.5 43.75C18.5 43.1533 18.2629 42.581 17.841 42.159C17.419 41.7371 16.8467 41.5 16.25 41.5C15.6533 41.5 15.081 41.7371 14.659 42.159C14.2371 42.581 14 43.1533 14 43.75C14 44.3467 14.2371 44.919 14.659 45.341C15.081 45.7629 15.6533 46 16.25 46ZM24.5 25C24.1022 25 23.7206 25.158 23.4393 25.4393C23.158 25.7206 23 26.1022 23 26.5C23 26.8978 23.158 27.2794 23.4393 27.5607C23.7206 27.842 24.1022 28 24.5 28H36.5C36.8978 28 37.2794 27.842 37.5607 27.5607C37.842 27.2794 38 26.8978 38 26.5C38 26.1022 37.842 25.7206 37.5607 25.4393C37.2794 25.158 36.8978 25 36.5 25H24.5ZM24.5 34C24.1022 34 23.7206 34.158 23.4393 34.4393C23.158 34.7206 23 35.1022 23 35.5C23 35.8978 23.158 36.2794 23.4393 36.5607C23.7206 36.842 24.1022 37 24.5 37H36.5C36.8978 37 37.2794 36.842 37.5607 36.5607C37.842 36.2794 38 35.8978 38 35.5C38 35.1022 37.842 34.7206 37.5607 34.4393C37.2794 34.158 36.8978 34 36.5 34H24.5ZM28.94 50.131L43.43 35.641C43.9512 35.1202 44.5699 34.7071 45.2508 34.4254C45.9316 34.1437 46.6613 33.9988 47.3981 33.9991C48.135 33.9994 48.8645 34.1448 49.5452 34.427C50.2258 34.7093 50.8442 35.1228 51.365 35.644C51.8858 36.1652 52.2989 36.7839 52.5806 37.4648C52.8623 38.1456 53.0072 38.8753 53.0069 39.6121C53.0066 40.349 52.8612 41.0785 52.579 41.7592C52.2967 42.4398 51.8832 43.0582 51.362 43.579L36.872 58.066C36.0279 58.9105 34.9702 59.5098 33.812 59.8L29.318 60.922C28.8711 61.0334 28.4031 61.0272 27.9593 60.9043C27.5155 60.7813 27.111 60.5456 26.7853 60.2201C26.4595 59.8946 26.2234 59.4904 26.1 59.0467C25.9766 58.603 25.9701 58.135 26.081 57.688L27.206 53.194C27.4937 52.0348 28.0934 50.9765 28.94 50.134V50.131Z" fill="#003F66"/>
</svg>
