<svg width="60" height="60" viewBox="0 0 60 60" fill="none" xmlns="http://www.w3.org/2000/svg">
<path d="M14.5975 25.3387C9.09375 26.6475 5 31.5962 5 37.5C5 44.4037 10.5963 50 17.5 50C18.6838 50 19.83 49.835 20.9162 49.5275M45.0688 25.3387C50.5725 26.6475 54.665 31.5962 54.665 37.5C54.665 44.4037 49.0687 50 42.165 50C40.9812 50 39.835 49.835 38.75 49.5275M45 25C45 16.7163 38.2837 10 30 10C21.7163 10 15 16.7163 15 25M21.3313 34.8513L30 26.155L38.915 35M30 47.5V30.5775" stroke="#003F66" stroke-width="5" stroke-linecap="round" stroke-linejoin="round"/>
</svg>
