<svg width="60" height="60" viewBox="0 0 60 60" fill="none" xmlns="http://www.w3.org/2000/svg">
<path d="M50 30V14.3725C50.0002 14.1752 49.9614 13.9797 49.8859 13.7974C49.8104 13.6151 49.6996 13.4495 49.56 13.31L41.69 5.44C41.409 5.15862 41.0277 5.00035 40.63 5H11.5C11.1022 5 10.7206 5.15804 10.4393 5.43934C10.158 5.72064 10 6.10218 10 6.5V53.5C10 53.8978 10.158 54.2794 10.4393 54.5607C10.7206 54.842 11.1022 55 11.5 55H27.5M20 25H40M20 15H30M20 35H27.5" stroke="#003F66" stroke-width="3.75" stroke-linecap="round" stroke-linejoin="round"/>
<path d="M40 13.5V5.885C40.0003 5.71019 40.0524 5.53939 40.1497 5.39414C40.2469 5.24889 40.385 5.1357 40.5465 5.06885C40.7081 5.002 40.8858 4.98447 41.0572 5.01849C41.2287 5.05251 41.3862 5.13654 41.51 5.26L49.74 13.49C49.8647 13.6133 49.9498 13.7709 49.9845 13.9428C50.0192 14.1147 50.002 14.293 49.9349 14.455C49.8678 14.617 49.754 14.7554 49.608 14.8525C49.462 14.9495 49.2903 15.0009 49.115 15H41.5C41.1022 15 40.7206 14.842 40.4393 14.5607C40.158 14.2794 40 13.8978 40 13.5Z" fill="#003F66" stroke="#003F66" stroke-width="3.75" stroke-linecap="round" stroke-linejoin="round"/>
<path d="M40.765 42.7825L43.0375 37.965C43.0988 37.8273 43.1988 37.7103 43.3252 37.6282C43.4517 37.5461 43.5992 37.5024 43.75 37.5024C43.9008 37.5024 44.0483 37.5461 44.1747 37.6282C44.3012 37.7103 44.4011 37.8273 44.4625 37.965L46.7375 42.7825L51.8175 43.56C52.47 43.66 52.73 44.5 52.26 44.98L48.5825 48.73L49.45 54.025C49.56 54.705 48.8775 55.225 48.295 54.9025L43.75 52.4025L39.205 54.9025C38.62 55.225 37.94 54.705 38.05 54.025L38.9175 48.73L35.2425 44.98C34.7675 44.5 35.03 43.66 35.6825 43.56L40.765 42.785V42.7825Z" stroke="#003F66" stroke-width="3.75" stroke-linecap="round" stroke-linejoin="round"/>
<path d="M50 30V14.3725C50.0002 14.1752 49.9614 13.9797 49.8859 13.7974C49.8104 13.6151 49.6996 13.4495 49.56 13.31L41.69 5.44C41.409 5.15862 41.0277 5.00035 40.63 5H11.5C11.1022 5 10.7206 5.15804 10.4393 5.43934C10.158 5.72064 10 6.10218 10 6.5V53.5C10 53.8978 10.158 54.2794 10.4393 54.5607C10.7206 54.842 11.1022 55 11.5 55H27.5M20 25H40M20 15H30M20 35H27.5" stroke="#003F66" stroke-width="3.75" stroke-linecap="round" stroke-linejoin="round"/>
<path d="M40 13.5V5.885C40.0003 5.71019 40.0524 5.53939 40.1497 5.39414C40.2469 5.24889 40.385 5.1357 40.5465 5.06885C40.7081 5.002 40.8858 4.98447 41.0572 5.01849C41.2287 5.05251 41.3862 5.13654 41.51 5.26L49.74 13.49C49.8647 13.6133 49.9498 13.7709 49.9845 13.9428C50.0192 14.1147 50.002 14.293 49.9349 14.455C49.8678 14.617 49.754 14.7554 49.608 14.8525C49.462 14.9495 49.2903 15.0009 49.115 15H41.5C41.1022 15 40.7206 14.842 40.4393 14.5607C40.158 14.2794 40 13.8978 40 13.5Z" fill="#003F66" stroke="#003F66" stroke-width="3.75" stroke-linecap="round" stroke-linejoin="round"/>
<path d="M40.765 42.7825L43.0375 37.965C43.0988 37.8273 43.1988 37.7103 43.3252 37.6282C43.4517 37.5461 43.5992 37.5024 43.75 37.5024C43.9008 37.5024 44.0483 37.5461 44.1747 37.6282C44.3012 37.7103 44.4011 37.8273 44.4625 37.965L46.7375 42.7825L51.8175 43.56C52.47 43.66 52.73 44.5 52.26 44.98L48.5825 48.73L49.45 54.025C49.56 54.705 48.8775 55.225 48.295 54.9025L43.75 52.4025L39.205 54.9025C38.62 55.225 37.94 54.705 38.05 54.025L38.9175 48.73L35.2425 44.98C34.7675 44.5 35.03 43.66 35.6825 43.56L40.765 42.785V42.7825Z" stroke="#003F66" stroke-width="3.75" stroke-linecap="round" stroke-linejoin="round"/>
</svg>
