<svg width="57" height="45" viewBox="0 0 57 45" fill="none" xmlns="http://www.w3.org/2000/svg">
<g clip-path="url(#clip0_223_220)">
<path d="M8.4375 19.6875C11.54 19.6875 14.0625 17.165 14.0625 14.0625C14.0625 10.96 11.54 8.4375 8.4375 8.4375C5.33496 8.4375 2.8125 10.96 2.8125 14.0625C2.8125 17.165 5.33496 19.6875 8.4375 19.6875ZM47.8125 19.6875C50.915 19.6875 53.4375 17.165 53.4375 14.0625C53.4375 10.96 50.915 8.4375 47.8125 8.4375C44.71 8.4375 42.1875 10.96 42.1875 14.0625C42.1875 17.165 44.71 19.6875 47.8125 19.6875ZM50.625 22.5H45C43.4531 22.5 42.0557 23.124 41.0361 24.1348C44.5781 26.0771 47.0918 29.584 47.6367 33.75H53.4375C54.9932 33.75 56.25 32.4932 56.25 30.9375V28.125C56.25 25.0225 53.7275 22.5 50.625 22.5ZM28.125 22.5C33.5654 22.5 37.9688 18.0967 37.9688 12.6562C37.9688 7.21582 33.5654 2.8125 28.125 2.8125C22.6846 2.8125 18.2812 7.21582 18.2812 12.6562C18.2812 18.0967 22.6846 22.5 28.125 22.5ZM34.875 25.3125H34.1455C32.3174 26.1914 30.2871 26.7188 28.125 26.7188C25.9629 26.7188 23.9414 26.1914 22.1045 25.3125H21.375C15.7852 25.3125 11.25 29.8477 11.25 35.4375V37.9688C11.25 40.2979 13.1396 42.1875 15.4688 42.1875H40.7812C43.1104 42.1875 45 40.2979 45 37.9688V35.4375C45 29.8477 40.4648 25.3125 34.875 25.3125ZM15.2139 24.1348C14.1943 23.124 12.7969 22.5 11.25 22.5H5.625C2.52246 22.5 0 25.0225 0 28.125V30.9375C0 32.4932 1.25684 33.75 2.8125 33.75H8.60449C9.1582 29.584 11.6719 26.0771 15.2139 24.1348Z" fill="#003F66"/>
</g>
<defs>
<clipPath id="clip0_223_220">
<rect width="56.25" height="45" fill="white"/>
</clipPath>
</defs>
</svg>
