<svg width="57" height="45" viewBox="0 0 57 45" fill="none" xmlns="http://www.w3.org/2000/svg">
<g clip-path="url(#clip0_223_225)">
<path d="M45 14.0625C48.883 14.0625 52.0312 10.9143 52.0312 7.03125C52.0312 3.14824 48.8848 0 45 0C41.117 0 37.9688 3.14824 37.9688 7.03125C37.9688 10.9143 41.1152 14.0625 45 14.0625ZM11.25 14.0625C15.133 14.0625 18.2812 10.9143 18.2812 7.03125C18.2812 3.14824 15.1348 0 11.25 0C7.36699 0 4.21875 3.14824 4.21875 7.03125C4.21875 10.9143 7.36699 14.0625 11.25 14.0625ZM28.1162 28.125C33.162 28.125 37.1777 24.0328 37.1777 18.9844C37.1777 13.9359 33.0873 9.84375 28.1162 9.84375C23.0704 9.84375 19.0547 13.9359 19.0547 18.9844C18.9756 24.0293 23.0713 28.125 28.1162 28.125ZM32.3438 35.1562C32.3438 33.6894 32.6424 32.3033 33.1013 30.9938C32.8975 30.9814 32.7129 30.9375 32.5107 30.9375H23.7393C16.8398 30.9375 11.25 36.1846 11.25 42.6533C11.25 43.9541 12.3662 45 13.7461 45H37.1338C34.2334 42.6797 32.3438 39.1553 32.3438 35.1562ZM16.1631 18.9844C16.1631 18.5055 16.2494 18.0501 16.3045 17.586C15.3457 17.0596 14.291 16.875 13.1748 16.875H7.74141C3.46641 16.875 0 20.5488 0 25.0752C0 25.9805 0.693193 26.7188 1.54863 26.7188H19.0828C17.2881 24.627 16.1631 21.9463 16.1631 18.9844ZM48.5068 16.875H43.0717C41.9467 16.875 40.885 17.1419 39.9199 17.5992C39.9727 18.0615 40.0605 18.5098 40.0605 18.9844C40.0605 20.8714 39.5662 22.6213 38.7729 24.1998C40.623 23.1504 42.7236 22.5 45 22.5C48.7336 22.5 52.055 24.1471 54.3691 26.7188H54.6993C55.5557 26.7188 56.25 25.9805 56.25 25.0752C56.25 20.5488 52.7871 16.875 48.5068 16.875ZM54.3252 32.2295C53.8835 30.8224 53.1308 29.5383 52.1499 28.4757C52.0771 28.3953 51.9787 28.3425 51.8715 28.3261C51.7642 28.3097 51.6546 28.3308 51.5611 28.3858L49.8763 29.3587C49.1647 28.7534 48.347 28.2794 47.4637 27.9683V25.9365C47.4637 25.7156 47.3001 25.5194 47.0874 25.4783C45.6319 25.1511 44.1431 25.1594 42.7526 25.4783C42.6182 25.5938 42.46 25.7959 42.46 25.9365V27.8912C41.5767 28.2021 40.7584 28.6763 40.0474 29.2816L38.3546 28.3087C38.1666 28.1942 37.9211 28.235 37.766 28.3986C36.7842 29.4621 36.0319 30.7462 35.5986 32.1524C35.5332 32.3732 35.6232 32.6021 35.8113 32.7084L37.4962 33.6901C37.3328 34.6099 37.3328 35.5513 37.4962 36.471L35.8113 37.4527C35.615 37.559 35.5332 37.7881 35.5986 38.0089C36.0321 39.416 36.7842 40.6913 37.766 41.7627C37.9212 41.9265 38.1586 41.9673 38.3546 41.8528L40.0474 40.8799C40.7588 41.4852 41.5767 41.9592 42.46 42.2703V44.225C42.46 44.4459 42.6155 44.6421 42.828 44.683C44.2923 45.0102 45.7724 45.0019 47.1628 44.683C47.3755 44.6421 47.5391 44.4459 47.5391 44.225V42.2703C48.4224 41.9596 49.2406 41.4853 49.9517 40.8799L51.6365 41.8528C51.8247 41.9673 52.0782 41.9265 52.2253 41.7627C53.2071 40.6992 53.9594 39.416 54.4006 38.0089C54.466 37.7881 54.3763 37.559 54.1798 37.4527L52.495 36.471C52.6666 35.552 52.6666 34.6092 52.495 33.6901L54.1798 32.7084C54.3779 32.6777 54.4658 32.4492 54.3252 32.2295ZM45 37.9688C43.447 37.9688 42.1875 36.7093 42.1875 35.1562C42.1875 33.6032 43.447 32.3438 45 32.3438C46.553 32.3438 47.8125 33.6032 47.8125 35.1562C47.8125 36.7119 46.5557 37.9688 45 37.9688Z" fill="#003F66"/>
</g>
<defs>
<clipPath id="clip0_223_225">
<rect width="56.25" height="45" fill="white"/>
</clipPath>
</defs>
</svg>
