<svg width="60" height="62" viewBox="0 0 60 62" fill="none" xmlns="http://www.w3.org/2000/svg">
<path d="M20.3675 31.065C25.355 31.065 29.1175 27.3025 29.1175 22.315C29.1175 17.3275 25.355 13.565 20.3675 13.565C15.38 13.565 11.6175 17.3275 11.6175 22.315C11.6175 27.3025 15.38 31.065 20.3675 31.065ZM22.8675 33.435H17.8675C10.975 33.435 5.36749 39.0425 5.36749 45.935V48.435H35.3675V45.935C35.3675 39.0425 29.76 33.435 22.8675 33.435ZM51.1025 21.665L40.3525 32.395L37.1225 29.165L33.5875 32.7L40.3525 39.46L54.6325 25.205L51.1025 21.665Z" fill="#003F66"/>
</svg>
