<svg width="50" height="50" viewBox="0 0 50 50" fill="none" xmlns="http://www.w3.org/2000/svg">
<path d="M29.7078 24.0351C30.2318 23.9808 30.7541 23.9118 31.2742 23.8281V20.1555C30.4742 20.5375 29.6398 20.7734 28.8101 20.9562C26.7062 21.3961 24.5664 21.4476 22.4461 21.2258C21.3773 21.0906 20.3484 20.9141 19.2828 20.5351C19.0719 20.4555 18.8625 20.3664 18.6539 20.2664V23.568C22.3117 24.1672 26.0312 24.4211 29.7078 24.0351Z" fill="#003F66"/>
<path d="M43.9836 32.8023V19.407C43.9836 17.8539 42.9164 16.4078 41.0906 15.1828V9.31641C41.0906 8.74219 40.6352 8.26719 40.0422 8.17734C40.4773 7.99297 40.7852 7.6125 40.7852 7.15469C40.7852 6.51953 39.4945 4.46953 39.4945 4.46953C39.4945 4.46953 38.2023 6.51875 38.2023 7.15469C38.2023 7.60625 38.5031 7.98359 38.9297 8.17109C38.3031 8.23359 37.8117 8.72031 37.8117 9.31641V13.5234C36.6677 13.0871 35.4958 12.7277 34.3039 12.4477C34.3654 12.3 34.3981 12.142 34.4 11.982C34.4 11.2141 32.8375 8.73672 32.8375 8.73672C32.8375 8.73672 31.4078 11.0055 31.2875 11.8727C29.757 11.6469 28.1281 11.5156 26.4477 11.4625V5.83359C26.4477 5.31719 26.0477 4.88594 25.5195 4.79141C25.8797 4.62344 26.1313 4.29844 26.1313 3.91172C26.1305 3.35547 25 1.5625 25 1.5625C25 1.5625 23.8695 3.35547 23.8695 3.91172C23.8695 4.29375 24.1148 4.61562 24.468 4.78516C23.9109 4.85703 23.4789 5.29688 23.4789 5.83359V11.4633C21.8359 11.518 20.243 11.6477 18.7445 11.868C18.5977 10.9812 17.1969 8.75938 17.1969 8.75938C17.1969 8.75938 15.6344 11.2359 15.6344 12.0047C15.6344 12.1586 15.6695 12.3039 15.7211 12.4422C14.49 12.7293 13.2805 13.1024 12.1016 13.5586V9.32812C12.1016 8.75469 11.6453 8.27969 11.0516 8.18984C11.4867 8.00547 11.7961 7.62422 11.7961 7.16641C11.7961 6.53125 10.5039 4.48125 10.5039 4.48125C10.5039 4.48125 9.21172 6.53047 9.21172 7.16641C9.21172 7.61797 9.51328 7.99531 9.93984 8.18281C9.3125 8.24609 8.82109 8.73281 8.82109 9.32812V15.2453C7.05 16.4578 6.01484 17.8812 6.01484 19.4078V32.8047C3.21641 34.4266 1.5625 36.4219 1.5625 38.5805C1.5625 44.025 12.0562 48.4375 25 48.4375C37.9438 48.4375 48.4375 44.025 48.4375 38.5805C48.4375 36.4211 46.7828 34.4258 43.9836 32.8023ZM38.8477 7.76797C38.8477 7.45 39.4945 6.425 39.4945 6.425C39.4945 6.425 40.1414 7.45 40.1414 7.76797C40.14 7.84477 40.1218 7.92033 40.0882 7.98941C40.0546 8.05849 40.0064 8.11942 39.9469 8.16797C39.9109 8.16484 39.8758 8.15781 39.8391 8.15781H39.0641C39.0539 8.15781 39.0453 8.16016 39.0352 8.16016C38.9776 8.11203 38.9311 8.05211 38.8988 7.98445C38.8664 7.91678 38.849 7.84296 38.8477 7.76797ZM38.5922 9.31641C38.5922 9.11172 38.8078 8.93984 39.0641 8.93984H39.8391C40.0938 8.93984 40.3094 9.1125 40.3094 9.31641V17.7516C40.3081 17.8343 40.2757 17.9135 40.2188 17.9734L39.9313 18.1203C39.9011 18.1257 39.8705 18.1286 39.8398 18.1289H39.0648C38.8094 18.1289 38.593 17.9555 38.593 17.7516V9.31641H38.5922ZM32.8367 11.1008C32.8367 11.1008 33.6195 12.3391 33.6195 12.7234C33.6195 13.107 33.2687 13.4188 32.8367 13.4188C32.4047 13.4188 32.0555 13.1078 32.0555 12.7234C32.0555 12.3391 32.8367 11.1008 32.8367 11.1008ZM24.4352 4.44766C24.4352 4.17031 25 3.27422 25 3.27422C25 3.27422 25.5664 4.16953 25.5664 4.44766C25.565 4.51084 25.5506 4.57306 25.5241 4.63045C25.4976 4.68784 25.4597 4.73917 25.4125 4.78125C25.375 4.77734 25.3391 4.77031 25.3008 4.77031H24.6234C24.6094 4.77031 24.5969 4.77344 24.5828 4.77422C24.5374 4.7326 24.5009 4.6822 24.4755 4.62607C24.4501 4.56994 24.4364 4.50924 24.4352 4.44766ZM24.2602 5.83359C24.2602 5.68125 24.4266 5.55234 24.6234 5.55234H25.3008C25.4984 5.55234 25.6656 5.68125 25.6656 5.83359V13.2148C25.6648 13.2714 25.6431 13.3256 25.6047 13.3672L25.3664 13.4898C25.3447 13.493 25.3227 13.4946 25.3008 13.4945H24.6234C24.4266 13.4945 24.2602 13.3664 24.2602 13.2148V5.83359ZM17.1969 11.1219C17.1969 11.1219 17.9781 12.3609 17.9781 12.7453C17.9781 13.1281 17.6289 13.4406 17.1969 13.4406C16.7648 13.4406 16.4156 13.1289 16.4156 12.7453C16.4156 12.3609 17.1969 11.1219 17.1969 11.1219ZM9.85859 7.77813C9.85859 7.46172 10.5039 6.43672 10.5039 6.43672C10.5039 6.43672 11.1508 7.46172 11.1508 7.77813C11.1495 7.85525 11.1313 7.93116 11.0976 8.00053C11.0638 8.0699 11.0153 8.13105 10.9555 8.17969C10.9195 8.17656 10.8852 8.16953 10.8484 8.16953H10.0734C10.0641 8.16953 10.0555 8.17188 10.0461 8.17188C9.98864 8.12335 9.9422 8.06312 9.90987 7.99522C9.87754 7.92733 9.86006 7.85331 9.85859 7.77813ZM9.60234 9.32656C9.60234 9.12266 9.81797 8.95078 10.0742 8.95078H10.8492C11.1047 8.95078 11.3211 9.12344 11.3211 9.32656V17.7625C11.3196 17.8449 11.2869 17.9236 11.2297 17.9828L10.9422 18.1305C10.9117 18.1359 10.8809 18.1387 10.85 18.1391H10.075C9.81953 18.1391 9.60312 17.9664 9.60312 17.7625V9.32656H9.60234ZM8.73984 18.4227C8.76562 18.2898 8.81719 18.1687 8.86328 18.0453C8.91484 18.2344 9.01641 18.4039 9.15469 18.5438C9.09375 18.9898 9.20312 19.4422 9.44141 19.8336C9.94844 20.6484 10.8164 21.2188 11.7008 21.6719C12.9391 22.2883 14.2719 22.6812 15.6344 22.9906V15.0383C15.6344 14.8313 15.7336 14.65 15.8789 14.5008C15.6539 14.5445 15.4273 14.5773 15.2039 14.6273C14.1531 14.8664 13.0844 15.1828 12.1016 15.6398V15.2266C12.1133 15.2211 12.1242 15.2148 12.1359 15.2102C13.0953 14.7812 14.0961 14.4664 15.1109 14.2258C17.1445 13.7551 19.2187 13.4815 21.3047 13.4086C22.0352 13.3813 22.7672 13.3852 23.5 13.4031C23.5758 13.7875 23.8742 14.0953 24.2656 14.2164C23.2849 14.1152 22.3 14.0597 21.3141 14.05C20.156 14.0444 18.9985 14.0986 17.8461 14.2125C18.3062 14.3016 18.6547 14.6281 18.6547 15.0383V16.4695L18.6961 16.4492C19.232 16.2164 19.7625 16.082 20.2984 15.9805C21.368 15.7836 22.4391 15.7406 23.5055 15.8016C24.5773 15.8758 25.6242 16.0242 26.6711 16.4703C26.9289 16.5875 27.1859 16.7305 27.4242 16.9461C27.65 17.1438 27.9148 17.5273 27.8086 17.9664C27.6953 18.3758 27.4133 18.5836 27.1727 18.743C26.9286 18.8926 26.6652 19.0083 26.3898 19.0867C25.3297 19.3937 24.257 19.3906 23.2078 19.257C22.682 19.1734 22.1695 19.0766 21.6695 18.8352C21.4375 18.7086 21.1625 18.5547 21.0812 18.2281C21.0367 17.868 21.3469 17.6805 21.5625 17.5664L21.6188 17.6687C21.4125 17.7937 21.2078 17.9984 21.2672 18.1875C21.3266 18.3766 21.5602 18.5078 21.7773 18.5992C22.225 18.7781 22.75 18.843 23.2461 18.8805C24.25 18.9344 25.2867 18.8391 26.2023 18.5242C26.6133 18.3922 27.1242 18.0547 27.1445 17.8211C27.2086 17.6539 26.8023 17.3211 26.3711 17.175C25.4922 16.8516 24.4508 16.7531 23.4656 16.7164C22.4688 16.6937 21.4609 16.7703 20.5016 16.982C20.0258 17.0883 19.5539 17.2305 19.1469 17.425C18.9744 17.5078 18.8097 17.6059 18.6547 17.718V18.9031C18.9453 19.1047 19.3102 19.2719 19.6883 19.4047C20.5766 19.7086 21.6016 19.8789 22.5828 19.9836C24.5711 20.1938 26.6133 20.1266 28.5664 19.7602C29.5266 19.5711 30.4773 19.3016 31.275 18.8453V16.0312C30.9609 15.8438 30.6289 15.6719 30.2781 15.525C29.3742 15.1461 28.3938 14.8953 27.3961 14.6852C26.5268 14.5145 25.6512 14.3784 24.7711 14.2773H25.3023C25.4 14.2773 25.4969 14.2656 25.5914 14.2422L26.0164 14.0359L26.0977 13.9805C26.2172 13.8727 26.307 13.7453 26.3664 13.6063C26.768 13.6555 27.1687 13.7039 27.5687 13.7727C28.5992 13.9531 29.6406 14.1797 30.6609 14.5656C30.882 14.6484 31.1008 14.7445 31.318 14.8477C31.4164 14.4562 31.8164 14.1547 32.318 14.1547H33.2547C33.8297 14.1547 34.2969 14.5422 34.2969 15.0188V23.1484C36.7078 22.4352 38.9906 21.3094 40.9125 19.6164L40.9938 19.7C39.5891 21.2352 37.8031 22.4297 35.8813 23.2688C35.3617 23.493 34.8328 23.6938 34.2977 23.8773V24.5312C34.2977 24.7687 34.182 24.9852 33.9938 25.1406L33.525 25.3656C33.4362 25.3851 33.3456 25.3953 33.2547 25.3961H32.318C31.8078 25.3961 31.4023 25.0859 31.3125 24.6828C30.818 24.782 30.3203 24.8672 29.8219 24.9359C26.1008 25.4461 22.318 25.268 18.6453 24.5922C18.6382 24.7021 18.6085 24.8093 18.5583 24.9073C18.508 25.0052 18.4382 25.0918 18.3531 25.1617L17.8844 25.3859C17.7992 25.4047 17.707 25.4172 17.6141 25.4172H16.6773C16.1008 25.4172 15.6352 25.0297 15.6352 24.5523V23.9109C14.1742 23.5117 12.7297 23.0047 11.3914 22.2461C10.4813 21.7109 9.57031 21.0594 9.02266 20.0711C8.75547 19.5805 8.62344 18.9852 8.73984 18.4227ZM42.4211 36.982C42.4211 40.0141 34.9711 43.4047 25 43.4047C15.0281 43.4047 7.57734 40.0141 7.57734 36.982V33.8773C8.34609 33.8359 8.96016 33.2789 8.96016 32.5922V29.5805C8.96016 28.632 9.83437 27.8633 10.9133 27.8633C11.9922 27.8633 12.868 28.632 12.868 29.5805V33.2961C12.868 34.3992 13.8859 35.2945 15.1398 35.2945C16.3953 35.2945 17.4133 34.3992 17.4133 33.2961V29.5C17.4133 28.507 18.3289 27.7031 19.4578 27.7031C20.5883 27.7031 21.5039 28.507 21.5039 29.5V31.9203C21.5039 32.4727 22.0117 32.9195 22.6406 32.9195C23.268 32.9195 23.7758 32.4727 23.7758 31.9203V30C23.7758 29.2828 24.4383 28.7016 25.2547 28.7016C26.0695 28.7016 26.7305 29.2828 26.7305 30V33.2969C26.7305 34.4 27.75 35.2953 29.0039 35.2953C30.2594 35.2953 31.2773 34.4 31.2773 33.2969V29.6016C31.2773 28.6641 32.1422 27.9031 33.2094 27.9031C34.2766 27.9031 35.1414 28.6641 35.1414 29.6016V32.2984C35.1414 32.85 35.6492 33.2969 36.2781 33.2969C36.9055 33.2969 37.4148 32.85 37.4148 32.2984V30.4102C37.4148 29.9187 37.8664 29.5203 38.425 29.5203C38.9852 29.5203 39.4383 29.9187 39.4383 30.4102V33.2969C39.4383 34.4 40.4547 35.2953 41.7102 35.2953C41.9602 35.2953 42.1961 35.2508 42.4211 35.1852V36.982Z" fill="#003F66"/>
</svg>
