<svg width="45" height="45" viewBox="0 0 45 45" fill="none" xmlns="http://www.w3.org/2000/svg">
<g clip-path="url(#clip0_223_213)">
<path d="M18.7685 0.162689C15.9767 0.162689 14.0088 2.13923 14.0088 4.9223C14.0088 7.98577 16.4285 9.97788 18.7685 11.899C19.5335 12.5273 20.2812 13.159 20.9856 13.8462H8.65385C6.37615 13.8462 4.48442 15.319 3.78519 17.3613C3.78519 17.3613 4.13827 20.7692 9.51923 20.7692C14.5212 20.7692 14.7063 18.225 14.7115 18.1194C14.7231 17.8986 14.8197 17.6908 14.981 17.5395C15.1423 17.3882 15.3558 17.3052 15.5769 17.3077C15.8041 17.315 16.02 17.4086 16.1807 17.5693C16.3414 17.73 16.435 17.9459 16.4423 18.1731C16.4492 18.2613 16.6933 20.7692 22.5 20.7692C28.3067 20.7692 28.549 18.225 28.5577 18.1194C28.5767 17.8917 28.6829 17.6802 28.8541 17.5289C29.0254 17.3777 29.2484 17.2984 29.4767 17.3077C29.6983 17.3171 29.9074 17.413 30.0591 17.5748C30.2109 17.7366 30.2932 17.9513 30.2885 18.1731C30.2919 18.2648 30.4442 20.7692 35.4808 20.7692C41.0244 20.7692 41.2148 17.3613 41.2148 17.3613C40.5156 15.3208 38.6204 13.8462 36.3462 13.8462H24.0144C24.725 13.1654 25.4647 12.5157 26.2315 11.899C28.5698 9.97788 30.9912 7.98404 30.9912 4.9223C30.9912 2.13923 29.025 0.162689 26.2315 0.162689C24.6219 0.162689 23.2598 1.31538 22.5 2.1098C21.7437 1.31365 20.3763 0.162689 18.7685 0.162689V0.162689ZM15.6288 20.2829C14.7842 21.3836 13.0535 22.5 9.51923 22.5C6.04904 22.5 4.32519 21.4183 3.46154 20.3365V27.6923H41.5385V20.3365C40.6748 21.4096 38.9458 22.5 35.4808 22.5C31.9327 22.5 30.2123 21.3802 29.3694 20.2829C28.4106 21.3785 26.4548 22.5 22.5 22.5C18.5313 22.5 16.5842 21.3836 15.6306 20.2829H15.6288ZM5.19231 29.4231C2.91462 29.4231 1.02288 30.896 0.323654 32.9383C0.325385 32.9383 0.676731 36.3461 6.05769 36.3461C11.0596 36.3461 12.9756 33.8019 12.9808 33.6963C12.9924 33.4755 13.0889 33.2677 13.2502 33.1164C13.4115 32.9651 13.625 32.8821 13.8462 32.8846C14.0733 32.892 14.2892 32.9855 14.4499 33.1462C14.6106 33.307 14.7042 33.5228 14.7115 33.75C14.7185 33.8383 16.6933 36.3461 22.5 36.3461C28.3067 36.3461 30.2798 33.8019 30.2885 33.6963C30.3075 33.4687 30.4137 33.2571 30.5849 33.1059C30.7562 32.9546 30.9792 32.8753 31.2075 32.8846C31.4291 32.8941 31.6382 32.99 31.7899 33.1517C31.9416 33.3135 32.024 33.5283 32.0192 33.75C32.0227 33.8417 33.9058 36.3461 38.9423 36.3461C44.486 36.3461 44.6763 32.9383 44.6763 32.9383C43.9771 30.8977 42.0819 29.4231 39.8077 29.4231H5.19231ZM13.8998 35.8598C13.0535 36.9606 9.59192 38.0769 6.05769 38.0769C2.5875 38.0769 0.863654 36.9952 0 35.9135V41.5385C0 44.4046 2.32615 45 5.19231 45H39.8077C42.6738 45 45 44.4046 45 41.5385V35.9135C44.1363 36.9865 42.4073 38.0769 38.9423 38.0769C35.3942 38.0769 31.9431 36.9571 31.1002 35.8598C30.1413 36.9554 26.4548 38.0769 22.5 38.0769C18.5313 38.0769 14.8535 36.9606 13.8998 35.8598Z" fill="#003F66"/>
</g>
<defs>
<clipPath id="clip0_223_213">
<rect width="45" height="45" fill="white"/>
</clipPath>
</defs>
</svg>
