<svg width="24" height="24" viewBox="0 0 24 24" fill="none" xmlns="http://www.w3.org/2000/svg">
<path d="M22.8573 14.6816L21.3345 13.7133C21.4361 13.1576 21.492 12.5853 21.492 12.0003C21.492 11.4153 21.4365 10.8438 21.3348 10.2881L22.8573 9.31985C23.1993 9.10197 23.3467 8.60172 23.1828 8.20835L22.5892 6.77547C22.4261 6.38135 21.9682 6.13122 21.5726 6.21935L19.812 6.61085C19.1572 5.6641 18.3366 4.84353 17.3898 4.18872L17.7817 2.42772C17.8695 2.0321 17.6197 1.57422 17.226 1.41147L15.7927 0.817471C15.3986 0.653221 14.898 0.800221 14.6805 1.14297L13.7122 2.66547C13.1474 2.56134 12.5743 2.50862 12 2.50797C11.4146 2.50797 10.8427 2.56385 10.2873 2.6651L9.3191 1.1426C9.10122 0.799846 8.60135 0.652846 8.20722 0.816346L6.77472 1.41035C6.3806 1.5731 6.1301 2.03135 6.2186 2.42735L6.6101 4.18797C5.66339 4.84255 4.84292 5.66301 4.18835 6.60972L2.42735 6.21822C2.03172 6.12972 1.57385 6.38022 1.41072 6.7736L0.817096 8.20647C0.653596 8.6006 0.800596 9.10122 1.1426 9.31872L2.66547 10.287C2.56167 10.852 2.50908 11.4252 2.50835 11.9996C2.50835 12.585 2.56422 13.1565 2.66547 13.7118L1.1426 14.6801C0.800221 14.898 0.653596 15.3982 0.817096 15.7927L1.41072 17.2256C1.57422 17.619 2.03172 17.8698 2.42735 17.781L4.18835 17.3891C4.84312 18.3357 5.66355 19.1563 6.6101 19.8112L6.21822 21.5722C6.12972 21.9678 6.3806 22.4257 6.77397 22.5885L8.20685 23.1825C8.60135 23.3452 9.10122 23.199 9.3191 22.8566L10.2873 21.3341C10.8431 21.4357 11.415 21.4912 12 21.4912C12.585 21.4912 13.1561 21.4357 13.7122 21.3341L14.6805 22.8566C14.898 23.199 15.3986 23.3452 15.7923 23.1825L17.2248 22.5892C17.6197 22.4257 17.8695 21.9678 17.781 21.5722L17.3895 19.8112C18.3363 19.1565 19.1569 18.3359 19.8116 17.3891L21.5722 17.781C21.9678 17.8695 22.4257 17.6186 22.5888 17.2256L23.1825 15.7927C23.3467 15.399 23.1993 14.8987 22.8573 14.6816V14.6816ZM9.5786 18.9686L8.80385 18.648C7.29569 17.9205 6.07881 16.7031 5.35197 15.1946L5.03247 14.4236C4.75914 13.6449 4.61881 12.8257 4.61735 12.0003C4.61735 11.148 4.76922 10.3331 5.03472 9.5711L5.35047 8.80872C6.07733 7.29934 7.29464 6.0811 8.80347 5.3531L9.57897 5.03172C10.3569 4.75882 11.1752 4.61874 11.9996 4.61735C12.8471 4.61735 13.6582 4.76735 14.4165 5.0306L15.1995 5.35497C16.7036 6.08132 17.9178 7.2951 18.6446 8.79897L18.9705 9.58647C19.233 10.344 19.3826 11.1536 19.3826 12.0003C19.3826 12.8471 19.2333 13.6571 18.9705 14.4146L18.6446 15.2021C17.9179 16.706 16.7036 17.9198 15.1995 18.6461L14.4165 18.9705C13.6396 19.2424 12.8227 19.3821 11.9996 19.3837C11.1751 19.3815 10.3568 19.2411 9.5786 18.9686" fill="#CE120D"/>
<path d="M17.625 12.0004C17.625 8.89387 15.1069 6.37537 12 6.37537C8.89388 6.37537 6.375 8.89387 6.375 12.0004C6.375 15.1069 8.89388 17.6254 12 17.6254C15.1069 17.6254 17.625 15.1069 17.625 12.0004ZM9.1875 12.0004C9.1875 11.2544 9.48382 10.5391 10.0113 10.0116C10.5387 9.48418 11.2541 9.18787 12 9.18787C12.7459 9.18787 13.4613 9.48418 13.9887 10.0116C14.5162 10.5391 14.8125 11.2544 14.8125 12.0004C14.8125 12.7463 14.5162 13.4617 13.9887 13.9891C13.4613 14.5166 12.7459 14.8129 12 14.8129C11.2541 14.8129 10.5387 14.5166 10.0113 13.9891C9.48382 13.4617 9.1875 12.7463 9.1875 12.0004Z" fill="#CE120D"/>
</svg>
