<svg width="30" height="30" viewBox="0 0 30 30" fill="none" xmlns="http://www.w3.org/2000/svg">
<path d="M14.8154 19.3652C14.8374 19.3932 14.8654 19.4159 14.8973 19.4315C14.9293 19.4471 14.9644 19.4552 15 19.4552C15.0356 19.4552 15.0707 19.4471 15.1027 19.4315C15.1346 19.4159 15.1626 19.3932 15.1846 19.3652L18.4658 15.2139C18.5859 15.0615 18.4775 14.8359 18.2812 14.8359H16.1104V4.92188C16.1104 4.79297 16.0049 4.6875 15.876 4.6875H14.1182C13.9893 4.6875 13.8838 4.79297 13.8838 4.92188V14.833H11.7188C11.5225 14.833 11.4141 15.0586 11.5342 15.2109L14.8154 19.3652ZM25.7227 18.3398H23.9648C23.8359 18.3398 23.7305 18.4453 23.7305 18.5742V23.0859H6.26953V18.5742C6.26953 18.4453 6.16406 18.3398 6.03516 18.3398H4.27734C4.14844 18.3398 4.04297 18.4453 4.04297 18.5742V24.375C4.04297 24.8936 4.46191 25.3125 4.98047 25.3125H25.0195C25.5381 25.3125 25.957 24.8936 25.957 24.375V18.5742C25.957 18.4453 25.8516 18.3398 25.7227 18.3398Z" fill="#003F66"/>
</svg>
