<svg width="60" height="60" viewBox="0 0 60 60" fill="none" xmlns="http://www.w3.org/2000/svg">
<path d="M7.43124 53.125H52.5687M11.4875 28.2487H20.3162V46.0287C20.3166 46.6989 20.583 47.3414 21.057 47.8151C21.5309 48.2889 22.1736 48.555 22.8437 48.555H37.2125C37.8824 48.5547 38.5248 48.2884 38.9985 47.8147C39.4721 47.341 39.7384 46.6986 39.7387 46.0287V28.2487H48.5687C48.8262 28.2811 49.0872 28.2281 49.3118 28.098C49.5364 27.968 49.7122 27.7679 49.8122 27.5285C49.9123 27.289 49.9312 27.0234 49.866 26.7722C49.8008 26.521 49.6551 26.298 49.4512 26.1375L31.7937 7.52249C31.3332 7.10613 30.7346 6.87561 30.1137 6.87561C29.4929 6.87561 28.8942 7.10613 28.4337 7.52249L10.6037 26.1375C9.65999 27.1237 10.0125 28.2475 11.4862 28.2475L11.4875 28.2487Z" stroke="#003F66" stroke-width="1.25" stroke-linecap="round" stroke-linejoin="round"/>
</svg>
