<svg width="28" height="28" viewBox="0 0 28 28" fill="none" xmlns="http://www.w3.org/2000/svg">
<path d="M22.1666 4.66667H19.8333V3.5C19.8333 3.19058 19.7104 2.89384 19.4916 2.67504C19.2728 2.45625 18.9761 2.33334 18.6666 2.33334C18.3572 2.33334 18.0605 2.45625 17.8417 2.67504C17.6229 2.89384 17.5 3.19058 17.5 3.5V4.66667H10.5V3.5C10.5 3.19058 10.3771 2.89384 10.1583 2.67504C9.93948 2.45625 9.64273 2.33334 9.33331 2.33334C9.02389 2.33334 8.72715 2.45625 8.50836 2.67504C8.28956 2.89384 8.16665 3.19058 8.16665 3.5V4.66667H5.83331C4.90506 4.66667 4.01482 5.03542 3.35844 5.6918C2.70206 6.34817 2.33331 7.23841 2.33331 8.16667V22.1667C2.33331 23.0949 2.70206 23.9852 3.35844 24.6415C4.01482 25.2979 4.90506 25.6667 5.83331 25.6667H22.1666C23.0949 25.6667 23.9851 25.2979 24.6415 24.6415C25.2979 23.9852 25.6666 23.0949 25.6666 22.1667V8.16667C25.6666 7.23841 25.2979 6.34817 24.6415 5.6918C23.9851 5.03542 23.0949 4.66667 22.1666 4.66667V4.66667ZM23.3333 22.1667C23.3333 22.4761 23.2104 22.7728 22.9916 22.9916C22.7728 23.2104 22.4761 23.3333 22.1666 23.3333H5.83331C5.52389 23.3333 5.22715 23.2104 5.00836 22.9916C4.78956 22.7728 4.66665 22.4761 4.66665 22.1667V14H23.3333V22.1667ZM23.3333 11.6667H4.66665V8.16667C4.66665 7.85725 4.78956 7.5605 5.00836 7.34171C5.22715 7.12292 5.52389 7 5.83331 7H8.16665V8.16667C8.16665 8.47609 8.28956 8.77283 8.50836 8.99163C8.72715 9.21042 9.02389 9.33334 9.33331 9.33334C9.64273 9.33334 9.93948 9.21042 10.1583 8.99163C10.3771 8.77283 10.5 8.47609 10.5 8.16667V7H17.5V8.16667C17.5 8.47609 17.6229 8.77283 17.8417 8.99163C18.0605 9.21042 18.3572 9.33334 18.6666 9.33334C18.9761 9.33334 19.2728 9.21042 19.4916 8.99163C19.7104 8.77283 19.8333 8.47609 19.8333 8.16667V7H22.1666C22.4761 7 22.7728 7.12292 22.9916 7.34171C23.2104 7.5605 23.3333 7.85725 23.3333 8.16667V11.6667Z" fill="black"/>
</svg>
