<svg width="60" height="60" viewBox="0 0 60 60" fill="none" xmlns="http://www.w3.org/2000/svg">
<path d="M39 39.42L42.51 21.6C44.88 20.31 46.5 17.85 46.5 15C46.5 13.0109 45.7098 11.1032 44.3033 9.6967C42.8968 8.29018 40.9891 7.5 39 7.5C37.0109 7.5 35.1032 8.29018 33.6967 9.6967C32.2902 11.1032 31.5 13.0109 31.5 15C31.5 17.85 33.12 20.31 35.49 21.6L39 39.42ZM39 10.5C41.49 10.5 43.5 12.51 43.5 15C43.5 17.49 41.49 19.5 39 19.5C36.51 19.5 34.5 17.49 34.5 15C34.5 12.51 36.51 10.5 39 10.5ZM44.16 24.9L54 20.91V47.91L39.36 54L21 47.91L6 53.91V26.91L21 20.91L33.81 25.14L39 47.04L44.16 24.9Z" fill="#003F66"/>
</svg>
