<svg width="28" height="28" viewBox="0 0 28 28" fill="none" xmlns="http://www.w3.org/2000/svg">
<path d="M12.25 5.25H15.75C15.75 4.78587 15.5656 4.34075 15.2374 4.01256C14.9092 3.68437 14.4641 3.5 14 3.5C13.5359 3.5 13.0908 3.68437 12.7626 4.01256C12.4344 4.34075 12.25 4.78587 12.25 5.25V5.25ZM10.5 5.25C10.5 4.32174 10.8687 3.4315 11.5251 2.77513C12.1815 2.11875 13.0717 1.75 14 1.75C14.9283 1.75 15.8185 2.11875 16.4749 2.77513C17.1313 3.4315 17.5 4.32174 17.5 5.25H24.5C24.7321 5.25 24.9546 5.34219 25.1187 5.50628C25.2828 5.67038 25.375 5.89294 25.375 6.125C25.375 6.35706 25.2828 6.57962 25.1187 6.74372C24.9546 6.90781 24.7321 7 24.5 7H23.513L21.4042 22.4665C21.2612 23.5146 20.7433 24.4754 19.9463 25.1711C19.1494 25.8667 18.1273 26.25 17.0695 26.25H10.9305C9.87265 26.25 8.85064 25.8667 8.05368 25.1711C7.25671 24.4754 6.73877 23.5146 6.59575 22.4665L4.487 7H3.5C3.26794 7 3.04538 6.90781 2.88128 6.74372C2.71719 6.57962 2.625 6.35706 2.625 6.125C2.625 5.89294 2.71719 5.67038 2.88128 5.50628C3.04538 5.34219 3.26794 5.25 3.5 5.25H10.5ZM12.25 11.375C12.25 11.1429 12.1578 10.9204 11.9937 10.7563C11.8296 10.5922 11.6071 10.5 11.375 10.5C11.1429 10.5 10.9204 10.5922 10.7563 10.7563C10.5922 10.9204 10.5 11.1429 10.5 11.375V20.125C10.5 20.3571 10.5922 20.5796 10.7563 20.7437C10.9204 20.9078 11.1429 21 11.375 21C11.6071 21 11.8296 20.9078 11.9937 20.7437C12.1578 20.5796 12.25 20.3571 12.25 20.125V11.375ZM16.625 10.5C16.8571 10.5 17.0796 10.5922 17.2437 10.7563C17.4078 10.9204 17.5 11.1429 17.5 11.375V20.125C17.5 20.3571 17.4078 20.5796 17.2437 20.7437C17.0796 20.9078 16.8571 21 16.625 21C16.3929 21 16.1704 20.9078 16.0063 20.7437C15.8422 20.5796 15.75 20.3571 15.75 20.125V11.375C15.75 11.1429 15.8422 10.9204 16.0063 10.7563C16.1704 10.5922 16.3929 10.5 16.625 10.5ZM8.33 22.2303C8.41588 22.859 8.72663 23.4354 9.20473 23.8527C9.68283 24.2699 10.2959 24.4999 10.9305 24.5H17.0695C17.7044 24.5003 18.3179 24.2706 18.7964 23.8532C19.2748 23.4359 19.5858 22.8593 19.6718 22.2303L21.7473 7H6.25275L8.33 22.2303Z" fill="black"/>
</svg>
