<svg width="45" height="60" viewBox="0 0 45 60" fill="none" xmlns="http://www.w3.org/2000/svg">
<g clip-path="url(#clip0_102_3864)">
<path d="M45 16.875C45 11.6953 40.8047 7.5 35.625 7.5C30.4453 7.5 26.25 11.6953 26.25 16.875C26.25 21.1406 29.0977 24.7383 32.9883 25.875C32.918 27.7617 32.4961 29.2148 31.6992 30.1992C29.8945 32.4492 25.9219 32.8242 21.7148 33.2109C18.4102 33.5156 14.9883 33.8437 12.1875 35.1914V18.3164C15.9961 17.1211 18.75 13.5703 18.75 9.375C18.75 4.19531 14.5547 0 9.375 0C4.19531 0 0 4.19531 0 9.375C0 13.5703 2.75391 17.1211 6.5625 18.3164V41.6719C2.75391 42.8789 0 46.4297 0 50.625C0 55.8047 4.19531 60 9.375 60C14.5547 60 18.75 55.8047 18.75 50.625C18.75 46.6406 16.2656 43.2305 12.75 41.8828C13.1133 41.2734 13.6641 40.7344 14.4961 40.3125C16.3945 39.3516 19.2305 39.0938 22.2422 38.8125C27.1875 38.3555 32.7891 37.8281 36.0938 33.7266C37.7344 31.6875 38.5664 29.0625 38.625 25.7695C42.3281 24.5039 45 21 45 16.875ZM9.375 7.5C10.4063 7.5 11.25 8.34375 11.25 9.375C11.25 10.4063 10.4063 11.25 9.375 11.25C8.34375 11.25 7.5 10.4063 7.5 9.375C7.5 8.34375 8.34375 7.5 9.375 7.5ZM9.375 52.5C8.34375 52.5 7.5 51.6563 7.5 50.625C7.5 49.5937 8.34375 48.75 9.375 48.75C10.4063 48.75 11.25 49.5937 11.25 50.625C11.25 51.6563 10.4063 52.5 9.375 52.5ZM35.625 15C36.6563 15 37.5 15.8437 37.5 16.875C37.5 17.9063 36.6563 18.75 35.625 18.75C34.5937 18.75 33.75 17.9063 33.75 16.875C33.75 15.8437 34.5937 15 35.625 15Z" fill="#003F66"/>
</g>
<defs>
<clipPath id="clip0_102_3864">
<rect width="45" height="60" fill="white"/>
</clipPath>
</defs>
</svg>
