<svg width="60" height="60" viewBox="0 0 60 60" fill="none" xmlns="http://www.w3.org/2000/svg">
<g clip-path="url(#clip0_101_3858)">
<path d="M14.9663 4.03743C-4.98846 15.5417 -4.98846 44.4583 14.9663 55.9625C34.9212 67.4667 60.0002 53.0083 60.0002 30C60.0002 6.99161 34.9212 -7.46675 14.9663 4.03743ZM3.92072 20.3722C9.45584 27.1067 6.68975 25.3779 17.6088 29.2333L15.9415 32.6017C14.4184 37.5313 20.1684 35.8749 20.0863 41.5124L17.9893 51.0437C17.8077 51.8695 18.3505 52.5472 19.204 52.5472C23.0538 45.9583 22.0537 47.7917 29.9345 40.9398C32.5407 38.7313 32.3564 35.3881 29.518 33.4767L22.0328 28.4361C20.7304 27.6731 18.3753 28.2962 18.119 28.6807L11.2425 25.2443C9.084 23.6121 9.42197 21.0494 13.0226 19.767C16.0963 22.9363 16.2933 23.4713 16.1133 18.2061L19.204 15.0842H23.8255C24.6763 15.0842 25.1231 14.0397 24.8531 13.2214C24.0078 11.1472 22.7147 9.61732 19.0304 7.97224C16.0665 6.93982 17.8152 12.0761 14.6464 11.4684L11.4772 10.4013C14.3038 5.16654 23.7829 1.97903 30.769 2.26134C23.9067 3.04943 24.4773 5.7547 25.2994 7.72708C26.8023 10.5525 28.2607 12.8775 32.4443 7.94411C36.8087 7.11888 38.8087 6.17294 34.2429 2.5788C40.5636 3.55907 46.1791 6.67239 50.3306 11.1601C47.9505 10.4359 46.4092 11.9117 47.8591 12.6329C49.5391 13.272 49.1093 14.3602 48.0839 15.0839C46.7808 15.0799 45.0654 14.7689 44.8766 16.6449C44.4866 19.3918 41.7037 17.1101 42.1679 19.662C43.1997 22.4581 44.3454 21.3125 45.5624 19.6124C46.7431 17.8817 48.5176 18.2128 51.2912 18.206C52.7742 19.8703 54.362 20.7435 56.2717 21.1706C56.578 22.0841 56.8362 23.013 57.0452 23.9536C48.795 22.145 47.3299 19.2147 41.8624 23.9621C38.9704 27.2917 40.5538 34.9167 47.4995 33.6756C48.3603 33.6756 49.2177 34.3552 49.4101 35.1751C50.9206 40.5577 51.5919 45.8442 52.452 46.2512C31.8037 72.0832 -6.19619 50.6667 3.92072 20.3723V20.3722Z" fill="#003F66"/>
</g>
<defs>
<clipPath id="clip0_101_3858">
<rect width="60" height="60" fill="white"/>
</clipPath>
</defs>
</svg>
