<svg width="36" height="36" viewBox="0 0 36 36" fill="none" xmlns="http://www.w3.org/2000/svg">
<path d="M15 25.86L17 26.86V20.27C16.9989 20.0077 16.8947 19.7563 16.71 19.57L10.23 13H25.79L19.32 19.57C19.1353 19.7563 19.0311 20.0077 19.03 20.27L19 28L21 29V20.68L27.58 14C27.8432 13.733 27.9936 13.3749 28 13V12C28 11.7348 27.8946 11.4804 27.7071 11.2929C27.5196 11.1054 27.2652 11 27 11H9C8.73478 11 8.48043 11.1054 8.29289 11.2929C8.10536 11.4804 8 11.7348 8 12V13C8.0064 13.3749 8.15679 13.733 8.42 14L15 20.68V25.86Z" fill="#CE120D"/>
</svg>
