<svg width="24" height="24" viewBox="0 0 24 24" fill="none" xmlns="http://www.w3.org/2000/svg"><path opacity="0.25" d="M12 14.195C11.824 14.195 11.652 14.149 11.5 14.062L2.50002 8.86405C2.34801 8.77628 2.22178 8.65004 2.13402 8.49803C2.04626 8.34601 2.00006 8.17358 2.00006 7.99805C2.00006 7.82252 2.04626 7.65008 2.13402 7.49807C2.22178 7.34606 2.34801 7.21982 2.50002 7.13205L11.5 1.93805C11.81 1.76105 12.19 1.76105 12.5 1.93805L21.5 7.13205C21.652 7.21982 21.7783 7.34606 21.866 7.49807C21.9538 7.65008 22 7.82252 22 7.99805C22 8.17358 21.9538 8.34601 21.866 8.49803C21.7783 8.65004 21.652 8.77628 21.5 8.86405L12.5 14.062C12.3479 14.1494 12.1755 14.1952 12 14.195Z" fill="#CE120D"></path><path opacity="0.5" d="M21.5 11.132L19.536 9.99805L12.5 14.062C12.19 14.24 11.81 14.24 11.5 14.062L4.46402 9.99805L2.50002 11.132C2.34801 11.2198 2.22178 11.3461 2.13402 11.4981C2.04626 11.6501 2.00006 11.8225 2.00006 11.998C2.00006 12.1736 2.04626 12.346 2.13402 12.498C2.22178 12.65 2.34801 12.7763 2.50002 12.864L11.5 18.062C11.81 18.24 12.19 18.24 12.5 18.062L21.5 12.864C21.652 12.7763 21.7783 12.65 21.866 12.498C21.9538 12.346 22 12.1736 22 11.998C22 11.8225 21.9538 11.6501 21.866 11.4981C21.7783 11.3461 21.652 11.2198 21.5 11.132V11.132Z" fill="#CE120D"></path><path d="M21.5 15.132L19.536 13.998L12.5 18.062C12.19 18.24 11.81 18.24 11.5 18.062L4.46402 13.998L2.50002 15.132C2.34801 15.2198 2.22178 15.3461 2.13402 15.4981C2.04626 15.6501 2.00006 15.8225 2.00006 15.998C2.00006 16.1736 2.04626 16.346 2.13402 16.498C2.22178 16.65 2.34801 16.7763 2.50002 16.864L11.5 22.062C11.81 22.24 12.19 22.24 12.5 22.062L21.5 16.864C21.652 16.7763 21.7783 16.65 21.866 16.498C21.9538 16.346 22 16.1736 22 15.998C22 15.8225 21.9538 15.6501 21.866 15.4981C21.7783 15.3461 21.652 15.2198 21.5 15.132V15.132Z" fill="#CE120D"></path></svg>