<svg width="28" height="28" viewBox="0 0 28 28" fill="none" xmlns="http://www.w3.org/2000/svg">
<path d="M9.33331 14.0607C11.6608 14.0607 13.4166 12.3048 13.4166 9.97733C13.4166 7.64983 11.6608 5.894 9.33331 5.894C7.00581 5.894 5.24998 7.64983 5.24998 9.97733C5.24998 12.3048 7.00581 14.0607 9.33331 14.0607ZM10.5 15.1667H8.16665C4.95015 15.1667 2.33331 17.7835 2.33331 21V22.1667H16.3333V21C16.3333 17.7835 13.7165 15.1667 10.5 15.1667ZM23.6763 9.674L18.6596 14.6813L17.1523 13.174L15.5026 14.8237L18.6596 17.9783L25.3236 11.326L23.6763 9.674Z" fill="black"/>
</svg>
