<svg width="24" height="24" viewBox="0 0 24 24" fill="none" xmlns="http://www.w3.org/2000/svg">
<path opacity="0.2" d="M21 15V19.5C21 19.6989 20.921 19.8897 20.7803 20.0303C20.6397 20.171 20.4489 20.25 20.25 20.25H3.75C3.55109 20.25 3.36032 20.171 3.21967 20.0303C3.07902 19.8897 3 19.6989 3 19.5V15" fill="#CE120D"/>
<path d="M20.25 6H16.5V5.25C16.4976 4.65402 16.2597 4.08316 15.8382 3.66173C15.4168 3.24031 14.846 3.00247 14.25 3H9.75C9.15402 3.00247 8.58316 3.24031 8.16173 3.66173C7.74031 4.08316 7.50247 4.65402 7.5 5.25V6H3.75C3.35217 6 2.97065 6.15803 2.68934 6.43934C2.40803 6.72065 2.25 7.10217 2.25 7.5V19.5C2.25 19.8978 2.40803 20.2793 2.68934 20.5607C2.97065 20.8419 3.35217 21 3.75 21H20.25C20.6478 21 21.0293 20.8419 21.3107 20.5607C21.5919 20.2793 21.75 19.8978 21.75 19.5V7.5C21.75 7.10217 21.5919 6.72065 21.3107 6.43934C21.0293 6.15803 20.6478 6 20.25 6ZM9 5.25C9 5.05109 9.07902 4.86032 9.21967 4.71967C9.36032 4.57902 9.55106 4.5 9.75 4.5H14.25C14.4489 4.5 14.6397 4.57902 14.7803 4.71967C14.921 4.86032 15 5.05109 15 5.25V6H9V5.25ZM20.25 7.5V14.25H3.75V7.5H20.25ZM20.25 19.5H3.75V15.75H20.25V19.5Z" fill="#CE120D"/>
</svg>
