<svg width="28" height="28" viewBox="0 0 28 28" fill="none" xmlns="http://www.w3.org/2000/svg">
<g clip-path="url(#clip0_115_52)">
<path d="M19.1845 13.25H26.0655C26.1487 13.25 26.2301 13.2738 26.3002 13.3184C26.3703 13.363 26.4263 13.4267 26.4616 13.502C26.4968 13.5772 26.5099 13.661 26.4993 13.7435C26.4886 13.8259 26.4547 13.9036 26.4015 13.9675L22.961 18.0975C22.92 18.1467 22.8686 18.1864 22.8105 18.2135C22.7525 18.2407 22.6891 18.2548 22.625 18.2548C22.5609 18.2548 22.4976 18.2407 22.4395 18.2135C22.3815 18.1864 22.3301 18.1467 22.289 18.0975L18.8485 13.9675C18.7953 13.9036 18.7614 13.8259 18.7508 13.7435C18.7402 13.661 18.7532 13.5772 18.7885 13.502C18.8237 13.4267 18.8797 13.363 18.9499 13.3184C19.02 13.2738 19.1014 13.25 19.1845 13.25V13.25ZM-0.0654714 16.75H6.81553C6.89866 16.75 6.98006 16.7263 7.0502 16.6816C7.12034 16.637 7.17632 16.5733 7.21157 16.498C7.24683 16.4228 7.2599 16.339 7.24927 16.2565C7.23864 16.1741 7.20473 16.0964 7.15153 16.0325L3.71103 11.9025C3.66997 11.8533 3.61859 11.8137 3.56053 11.7865C3.50247 11.7593 3.43914 11.7452 3.37503 11.7452C3.31092 11.7452 3.24759 11.7593 3.18953 11.7865C3.13147 11.8137 3.08009 11.8533 3.03903 11.9025L-0.401471 16.0325C-0.454675 16.0964 -0.488579 16.1741 -0.499213 16.2565C-0.509847 16.339 -0.496771 16.4228 -0.461515 16.498C-0.42626 16.5733 -0.370285 16.637 -0.300144 16.6816C-0.230004 16.7263 -0.148603 16.75 -0.0654714 16.75V16.75Z" fill="black"/>
<path fill-rule="evenodd" clip-rule="evenodd" d="M13 6.25C10.284 6.25 7.85501 7.48725 6.25026 9.4315C6.17861 9.52438 6.089 9.6019 5.98679 9.65946C5.88457 9.71701 5.77182 9.75342 5.65525 9.76653C5.53867 9.77964 5.42065 9.76917 5.30821 9.73575C5.19576 9.70233 5.09118 9.64664 5.00069 9.57199C4.9102 9.49735 4.83564 9.40526 4.78145 9.30122C4.72726 9.19718 4.69454 9.08331 4.68524 8.96637C4.67594 8.84943 4.69025 8.73182 4.72732 8.62052C4.76439 8.50922 4.82346 8.40651 4.90101 8.3185C6.18235 6.76718 7.8823 5.61652 9.79868 5.0034C11.7151 4.39028 13.7672 4.34049 15.7111 4.85996C17.6549 5.37943 19.4087 6.44629 20.7637 7.93365C22.1188 9.42102 23.0181 11.2663 23.3548 13.25H21.575C21.171 11.2739 20.0969 9.49799 18.5344 8.22251C16.972 6.94702 15.017 6.25025 13 6.25V6.25ZM4.42501 16.75C4.75631 18.3681 5.53863 19.8594 6.6816 21.0517C7.82457 22.2441 9.28154 23.0887 10.8842 23.488C12.4869 23.8873 14.1698 23.8251 15.7386 23.3085C17.3074 22.7919 18.698 21.842 19.7498 20.5685C19.8214 20.4756 19.911 20.3981 20.0132 20.3405C20.1155 20.283 20.2282 20.2466 20.3448 20.2335C20.4614 20.2204 20.5794 20.2308 20.6918 20.2643C20.8043 20.2977 20.9088 20.3534 20.9993 20.428C21.0898 20.5027 21.1644 20.5947 21.2186 20.6988C21.2728 20.8028 21.3055 20.9167 21.3148 21.0336C21.3241 21.1506 21.3098 21.2682 21.2727 21.3795C21.2356 21.4908 21.1766 21.5935 21.099 21.6815C19.8177 23.2328 18.1177 24.3835 16.2014 24.9966C14.285 25.6097 12.2328 25.6595 10.289 25.14C8.3451 24.6206 6.59135 23.5537 5.23629 22.0664C3.88124 20.579 2.98191 18.7337 2.64526 16.75H4.42501Z" fill="black"/>
<path d="M16.4489 11.6246V10.3333H9V11.6246H11.3701C12.2518 11.6246 12.996 12.1656 13.2763 12.9158H9V14.2071H13.2763C13.1373 14.5836 12.8795 14.9099 12.5382 15.1411C12.1968 15.3723 11.7888 15.4971 11.3701 15.4983H9V17.0569L12.7827 20.6633H14.6977L10.6347 16.7896H11.3701C12.1502 16.7886 12.906 16.5312 13.5102 16.0607C14.1144 15.5903 14.53 14.9356 14.6869 14.2071H16.4489V12.9158H14.6869C14.5831 12.4459 14.3692 12.0045 14.0612 11.6246H16.4489Z" fill="black"/>
</g>
<defs>
<clipPath id="clip0_115_52">
<rect width="28" height="28" fill="white"/>
</clipPath>
</defs>
</svg>
