<svg width="28" height="28" viewBox="0 0 28 28" fill="none" xmlns="http://www.w3.org/2000/svg">
<path d="M10.9375 8.68711H12.9582V17.9375C12.9582 18.0578 13.0566 18.1563 13.177 18.1563H14.8176C14.9379 18.1563 15.0363 18.0578 15.0363 17.9375V8.68711H17.0625C17.2457 8.68711 17.3469 8.47656 17.2348 8.33438L14.1723 4.45703C14.1518 4.43089 14.1257 4.40974 14.0958 4.3952C14.066 4.38066 14.0332 4.3731 14 4.3731C13.9668 4.3731 13.934 4.38066 13.9042 4.3952C13.8743 4.40974 13.8482 4.43089 13.8277 4.45703L10.7652 8.33164C10.6531 8.47656 10.7543 8.68711 10.9375 8.68711V8.68711ZM24.0078 17.1172H22.3672C22.2469 17.1172 22.1484 17.2156 22.1484 17.3359V21.5469H5.85156V17.3359C5.85156 17.2156 5.75313 17.1172 5.63281 17.1172H3.99219C3.87187 17.1172 3.77344 17.2156 3.77344 17.3359V22.75C3.77344 23.234 4.16445 23.625 4.64844 23.625H23.3516C23.8355 23.625 24.2266 23.234 24.2266 22.75V17.3359C24.2266 17.2156 24.1281 17.1172 24.0078 17.1172Z" fill="black"/>
</svg>
