<svg width="28" height="28" viewBox="0 0 28 28" fill="none" xmlns="http://www.w3.org/2000/svg">
<path d="M19.0833 18V17.9625C19.0814 17.9225 19.0729 17.8831 19.0583 17.8458C19.0472 17.8173 19.0317 17.7906 19.0125 17.7667C19.0014 17.7477 18.9889 17.7295 18.975 17.7125L17.7833 16.4625C17.7455 16.4228 17.7003 16.391 17.6503 16.3688C17.6002 16.3466 17.5463 16.3345 17.4915 16.3331C17.381 16.3304 17.2738 16.3717 17.1937 16.4479C17.1136 16.5242 17.067 16.6291 17.0643 16.7397C17.0616 16.8503 17.1029 16.9574 17.1791 17.0375L17.6916 17.5833H15.3333C15.2228 17.5833 15.1168 17.6272 15.0387 17.7054C14.9605 17.7835 14.9166 17.8895 14.9166 18C14.9166 18.1105 14.9605 18.2165 15.0387 18.2946C15.1168 18.3728 15.2228 18.4167 15.3333 18.4167H17.6625L17.1208 18.9542C17.0817 18.9929 17.0507 19.039 17.0296 19.0898C17.0084 19.1405 16.9975 19.195 16.9975 19.25C16.9975 19.305 17.0084 19.3595 17.0296 19.4102C17.0507 19.461 17.0817 19.5071 17.1208 19.5458C17.1595 19.5849 17.2056 19.6159 17.2564 19.637C17.3072 19.6582 17.3616 19.6691 17.4166 19.6691C17.4716 19.6691 17.5261 19.6582 17.5769 19.637C17.6276 19.6159 17.6737 19.5849 17.7125 19.5458L18.9625 18.2958C18.9999 18.2574 19.0296 18.2122 19.05 18.1625C19.0718 18.1111 19.0832 18.0559 19.0833 18Z" fill="black"/>
<path d="M15.9583 11.75V11.1667H12.75V11.75H13.7708C14.1506 11.75 14.4711 11.9944 14.5919 12.3333H12.75V12.9167H14.5919C14.532 13.0868 14.4209 13.2342 14.2739 13.3386C14.1269 13.4431 13.9512 13.4995 13.7708 13.5H12.75V14.2041L14.3793 15.8333H15.2041L13.4541 14.0833H13.7708C14.1068 14.0829 14.4324 13.9666 14.6926 13.7541C14.9528 13.5416 15.1318 13.2458 15.1994 12.9167H15.9583V12.3333H15.1994C15.1547 12.1211 15.0626 11.9216 14.9299 11.75H15.9583Z" fill="black"/>
<path d="M12.6666 6.58334H10.3083L10.8291 6.0375C10.9054 5.95739 10.9467 5.85026 10.9439 5.73969C10.9412 5.62912 10.8947 5.52417 10.8145 5.44792C10.7344 5.37167 10.6273 5.33037 10.5167 5.3331C10.4062 5.33584 10.3012 5.38239 10.225 5.4625L9.03329 6.7125C9.01938 6.72954 9.00684 6.74765 8.99579 6.76667C8.97656 6.79056 8.9611 6.81726 8.94996 6.84584C8.93531 6.8831 8.92687 6.92251 8.92496 6.9625C8.92496 6.9625 8.91663 7 8.91663 7C8.91728 7.05445 8.92861 7.10824 8.94996 7.15834C8.97027 7.208 8.99998 7.25327 9.03746 7.29167L10.2875 8.54167C10.3262 8.58072 10.3723 8.61172 10.4231 8.63287C10.4738 8.65403 10.5283 8.66492 10.5833 8.66492C10.6383 8.66492 10.6928 8.65403 10.7435 8.63287C10.7943 8.61172 10.8404 8.58072 10.8791 8.54167C10.9182 8.50294 10.9492 8.45685 10.9703 8.40608C10.9915 8.3553 11.0024 8.30084 11.0024 8.24584C11.0024 8.19083 10.9915 8.13637 10.9703 8.0856C10.9492 8.03482 10.9182 7.98874 10.8791 7.95L10.3375 7.41667H12.6666C12.7771 7.41667 12.8831 7.37277 12.9613 7.29463C13.0394 7.21649 13.0833 7.11051 13.0833 7C13.0833 6.8895 13.0394 6.78352 12.9613 6.70538C12.8831 6.62724 12.7771 6.58334 12.6666 6.58334Z" fill="black"/>
<path d="M20.3438 1.69531H7.65625C6.69102 1.69531 5.90625 2.48008 5.90625 3.44531V24.4453C5.90625 25.4105 6.69102 26.1953 7.65625 26.1953H20.3438C21.309 26.1953 22.0938 25.4105 22.0938 24.4453V3.44531C22.0938 2.48008 21.309 1.69531 20.3438 1.69531ZM20.125 24.2266H7.875V3.66406H20.125V24.2266ZM12.9062 21.4375C12.9062 21.7276 13.0215 22.0058 13.2266 22.2109C13.4317 22.416 13.7099 22.5312 14 22.5312C14.2901 22.5312 14.5683 22.416 14.7734 22.2109C14.9785 22.0058 15.0938 21.7276 15.0938 21.4375C15.0938 21.1474 14.9785 20.8692 14.7734 20.6641C14.5683 20.459 14.2901 20.3438 14 20.3438C13.7099 20.3438 13.4317 20.459 13.2266 20.6641C13.0215 20.8692 12.9062 21.1474 12.9062 21.4375Z" fill="black"/>
</svg>
