<svg width="60" height="60" viewBox="0 0 60 60" fill="none" xmlns="http://www.w3.org/2000/svg">
<path d="M28.1 26.9833C34.0462 26.9833 38.8666 22.1629 38.8666 16.2167C38.8666 10.2704 34.0462 5.45 28.1 5.45C22.1537 5.45 17.3333 10.2704 17.3333 16.2167C17.3333 22.1629 22.1537 26.9833 28.1 26.9833Z" fill="#003F66"/>
<path d="M35 46.6667H46.6667V49H35V46.6667Z" fill="#003F66"/>
<path d="M25 50V55C25 55.442 25.1756 55.866 25.4882 56.1785C25.8007 56.4911 26.2247 56.6667 26.6667 56.6667H55C55.442 56.6667 55.866 56.4911 56.1785 56.1785C56.4911 55.866 56.6667 55.442 56.6667 55V38.3333C56.6667 37.8913 56.4911 37.4674 56.1785 37.1548C55.866 36.8423 55.442 36.6667 55 36.6667H43.3333V34.2167C43.3333 33.7746 43.1578 33.3507 42.8452 33.0382C42.5326 32.7256 42.1087 32.55 41.6667 32.55C41.2247 32.55 40.8007 32.7256 40.4882 33.0382C40.1756 33.3507 40 33.7746 40 34.2167V36.6667H36.6667V30.7C33.8345 30.2374 30.9697 30.0033 28.1 30C21.7713 29.9731 15.5136 31.3327 9.76668 33.9833C8.82082 34.4297 8.02286 35.138 7.46747 36.0243C6.91209 36.9105 6.6226 37.9375 6.63335 38.9833V50H25ZM53.3333 53.3333H28.3333V40H40V40.7C40 41.142 40.1756 41.566 40.4882 41.8785C40.8007 42.1911 41.2247 42.3667 41.6667 42.3667C42.1087 42.3667 42.5326 42.1911 42.8452 41.8785C43.1578 41.566 43.3333 41.142 43.3333 40.7V40H53.3333V53.3333Z" fill="#003F66"/>
</svg>
